<svg preserveAspectRatio="none" width="100%" height="100%" overflow="visible" style="display: block;" viewBox="0 0 104 104" fill="none" xmlns="http://www.w3.org/2000/svg">
<g id="Group 1000006661">
<circle id="Ellipse 146" cx="52" cy="52" r="51.5" fill="#0E1012" stroke="url(#paint0_linear_10387_582)"/>
<g id="calendar_add_on">
<mask id="mask0_10387_582" style="mask-type:alpha" maskUnits="userSpaceOnUse" x="32" y="32" width="40" height="40">
<rect id="Bounding box" x="32" y="32" width="40" height="40" fill="#D9D9D9"/>
</mask>
<g mask="url(#mask0_10387_582)">
<path id="calendar_add_on_2" d="M60.3333 68.6673V63.6673H55.3333V60.334H60.3333V55.334H63.6667V60.334H68.6667V63.6673H63.6667V68.6673H60.3333ZM40.3333 65.334C39.4167 65.334 38.6319 65.0076 37.9792 64.3548C37.3264 63.702 37 62.9173 37 62.0007V42.0007C37 41.084 37.3264 40.2993 37.9792 39.6465C38.6319 38.9937 39.4167 38.6673 40.3333 38.6673H42V35.334H45.3333V38.6673H55.3333V35.334H58.6667V38.6673H60.3333C61.25 38.6673 62.0347 38.9937 62.6875 39.6465C63.3403 40.2993 63.6667 41.084 63.6667 42.0007V52.1673C63.1111 52.084 62.5556 52.0423 62 52.0423C61.4444 52.0423 60.8889 52.084 60.3333 52.1673V48.6673H40.3333V62.0007H52C52 62.5562 52.0417 63.1118 52.125 63.6673C52.2083 64.2229 52.3611 64.7784 52.5833 65.334H40.3333Z" fill="white"/>
</g>
</g>
</g>
<defs>
<linearGradient id="paint0_linear_10387_582" x1="104" y1="52" x2="0" y2="52" gradientUnits="userSpaceOnUse">
<stop stop-color="#A61651"/>
<stop offset="1" stop-color="#01ADF1"/>
</linearGradient>
</defs>
</svg>
