<svg preserveAspectRatio="none" width="100%" height="100%" overflow="visible" style="display: block;" viewBox="0 0 104 104" fill="none" xmlns="http://www.w3.org/2000/svg">
<g id="Group 1000006661">
<circle id="Ellipse 146" cx="52" cy="52" r="51.5" fill="#0E1012" stroke="url(#paint0_linear_10387_640)"/>
<g id="account_circle">
<mask id="mask0_10387_640" style="mask-type:alpha" maskUnits="userSpaceOnUse" x="32" y="32" width="40" height="40">
<rect id="Bounding box" x="32" y="32" width="40" height="40" fill="#D9D9D9"/>
</mask>
<g mask="url(#mask0_10387_640)">
<path id="account_circle_2" d="M41.7487 60.5007C43.1654 59.4173 44.7487 58.5632 46.4987 57.9382C48.2487 57.3132 50.082 57.0007 51.9987 57.0007C53.9154 57.0007 55.7487 57.3132 57.4987 57.9382C59.2487 58.5632 60.832 59.4173 62.2487 60.5007C63.2209 59.3618 63.9779 58.0701 64.5195 56.6257C65.0612 55.1812 65.332 53.6395 65.332 52.0007C65.332 48.3062 64.0334 45.1604 61.4362 42.5632C58.839 39.9659 55.6931 38.6673 51.9987 38.6673C48.3043 38.6673 45.1584 39.9659 42.5612 42.5632C39.964 45.1604 38.6654 48.3062 38.6654 52.0007C38.6654 53.6395 38.9362 55.1812 39.4779 56.6257C40.0195 58.0701 40.7765 59.3618 41.7487 60.5007ZM51.9987 53.6673C50.3598 53.6673 48.9779 53.1048 47.8529 51.9798C46.7279 50.8548 46.1654 49.4729 46.1654 47.834C46.1654 46.1951 46.7279 44.8132 47.8529 43.6882C48.9779 42.5632 50.3598 42.0007 51.9987 42.0007C53.6376 42.0007 55.0195 42.5632 56.1445 43.6882C57.2695 44.8132 57.832 46.1951 57.832 47.834C57.832 49.4729 57.2695 50.8548 56.1445 51.9798C55.0195 53.1048 53.6376 53.6673 51.9987 53.6673ZM51.9987 68.6673C49.6931 68.6673 47.5265 68.2298 45.4987 67.3548C43.4709 66.4798 41.707 65.2923 40.207 63.7923C38.707 62.2923 37.5195 60.5284 36.6445 58.5007C35.7695 56.4729 35.332 54.3062 35.332 52.0007C35.332 49.6951 35.7695 47.5284 36.6445 45.5007C37.5195 43.4729 38.707 41.709 40.207 40.209C41.707 38.709 43.4709 37.5215 45.4987 36.6465C47.5265 35.7715 49.6931 35.334 51.9987 35.334C54.3043 35.334 56.4709 35.7715 58.4987 36.6465C60.5265 37.5215 62.2904 38.709 63.7904 40.209C65.2904 41.709 66.4779 43.4729 67.3529 45.5007C68.2279 47.5284 68.6654 49.6951 68.6654 52.0007C68.6654 54.3062 68.2279 56.4729 67.3529 58.5007C66.4779 60.5284 65.2904 62.2923 63.7904 63.7923C62.2904 65.2923 60.5265 66.4798 58.4987 67.3548C56.4709 68.2298 54.3043 68.6673 51.9987 68.6673Z" fill="white"/>
</g>
</g>
</g>
<defs>
<linearGradient id="paint0_linear_10387_640" x1="104" y1="52" x2="0" y2="52" gradientUnits="userSpaceOnUse">
<stop stop-color="#A61651"/>
<stop offset="1" stop-color="#01ADF1"/>
</linearGradient>
</defs>
</svg>
