<svg preserveAspectRatio="none" width="100%" height="100%" overflow="visible" style="display: block;" viewBox="0 0 104 104" fill="none" xmlns="http://www.w3.org/2000/svg">
<g id="Group 1000006661">
<circle id="Ellipse 146" cx="52" cy="52" r="51.5" fill="var(--fill-0, #0E1012)" stroke="url(#paint0_linear_10387_576)"/>
<g id="payment_arrow_down">
<mask id="mask0_10387_576" style="mask-type:alpha" maskUnits="userSpaceOnUse" x="32" y="32" width="40" height="40">
<rect id="Bounding box" x="32" y="32" width="40" height="40" fill="var(--fill-0, #D9D9D9)"/>
</mask>
<g mask="url(#mask0_10387_576)">
<path id="payment_arrow_down_2" d="M52 50.334C53.3889 50.334 54.5694 49.8479 55.5417 48.8757C56.5139 47.9034 57 46.7229 57 45.334C57 43.9451 56.5139 42.7645 55.5417 41.7923C54.5694 40.8201 53.3889 40.334 52 40.334C50.6111 40.334 49.4306 40.8201 48.4583 41.7923C47.4861 42.7645 47 43.9451 47 45.334C47 46.7229 47.4861 47.9034 48.4583 48.8757C49.4306 49.8479 50.6111 50.334 52 50.334ZM40.3333 55.334C39.4167 55.334 38.6319 55.0076 37.9792 54.3548C37.3264 53.702 37 52.9173 37 52.0007V38.6673C37 37.7507 37.3264 36.9659 37.9792 36.3132C38.6319 35.6604 39.4167 35.334 40.3333 35.334H63.6667C64.5833 35.334 65.3681 35.6604 66.0208 36.3132C66.6736 36.9659 67 37.7507 67 38.6673V52.0007C67 52.9173 66.6736 53.702 66.0208 54.3548C65.3681 55.0076 64.5833 55.334 63.6667 55.334H40.3333ZM52 68.6673L58.6667 62.0007L56.3333 59.6673L53.6667 62.334V57.0007H50.3333V62.334L47.6667 59.6673L45.3333 62.0007L52 68.6673ZM40.3333 48.6673V52.0007H43.6667C43.6667 51.084 43.3403 50.2993 42.6875 49.6465C42.0347 48.9937 41.25 48.6673 40.3333 48.6673ZM60.3333 52.0007H63.6667V48.6673C62.75 48.6673 61.9653 48.9937 61.3125 49.6465C60.6597 50.2993 60.3333 51.084 60.3333 52.0007ZM63.6667 42.0007V38.6673H60.3333C60.3333 39.584 60.6597 40.3687 61.3125 41.0215C61.9653 41.6743 62.75 42.0007 63.6667 42.0007ZM43.6667 38.6673H40.3333V42.0007C41.25 42.0007 42.0347 41.6743 42.6875 41.0215C43.3403 40.3687 43.6667 39.584 43.6667 38.6673Z" fill="var(--fill-0, white)"/>
</g>
</g>
</g>
<defs>
<linearGradient id="paint0_linear_10387_576" x1="104" y1="52" x2="0" y2="52" gradientUnits="userSpaceOnUse">
<stop stop-color="#A61651"/>
<stop offset="1" stop-color="#01ADF1"/>
</linearGradient>
</defs>
</svg>
