<svg preserveAspectRatio="none" width="100%" height="100%" overflow="visible" style="display: block;" viewBox="0 0 104 104" fill="none" xmlns="http://www.w3.org/2000/svg">
<g id="Group 1000006661">
<circle id="Ellipse 146" cx="52" cy="52" r="51.5" fill="var(--fill-0, #0E1012)" stroke="url(#paint0_linear_10387_594)"/>
<g id="money_bag">
<mask id="mask0_10387_594" style="mask-type:alpha" maskUnits="userSpaceOnUse" x="32" y="32" width="40" height="40">
<rect id="Bounding box" x="32" y="32" width="40" height="40" fill="var(--fill-0, #D9D9D9)"/>
</mask>
<g mask="url(#mask0_10387_594)">
<path id="money_bag_2" d="M52 58.6667C51.0833 58.6667 50.2986 58.3403 49.6458 57.6875C48.9931 57.0347 48.6667 56.25 48.6667 55.3333C48.6667 54.4167 48.9931 53.6319 49.6458 52.9792C50.2986 52.3264 51.0833 52 52 52C52.9167 52 53.7014 52.3264 54.3542 52.9792C55.0069 53.6319 55.3333 54.4167 55.3333 55.3333C55.3333 56.25 55.0069 57.0347 54.3542 57.6875C53.7014 58.3403 52.9167 58.6667 52 58.6667ZM44.2917 43.6667H59.7083L63.0417 37H40.9583L44.2917 43.6667ZM46 67H58C60.5 67 62.625 66.1319 64.375 64.3958C66.125 62.6597 67 60.5278 67 58C67 56.9444 66.8194 55.9167 66.4583 54.9167C66.0972 53.9167 65.5833 53.0139 64.9167 52.2083L60.5833 47H43.4167L39.0833 52.2083C38.4167 53.0139 37.9028 53.9167 37.5417 54.9167C37.1806 55.9167 37 56.9444 37 58C37 60.5278 37.8681 62.6597 39.6042 64.3958C41.3403 66.1319 43.4722 67 46 67Z" fill="var(--fill-0, white)"/>
</g>
</g>
</g>
<defs>
<linearGradient id="paint0_linear_10387_594" x1="104" y1="52" x2="0" y2="52" gradientUnits="userSpaceOnUse">
<stop stop-color="#A61651"/>
<stop offset="1" stop-color="#01ADF1"/>
</linearGradient>
</defs>
</svg>
