<svg preserveAspectRatio="none" width="100%" height="100%" overflow="visible" style="display: block;" viewBox="0 0 104 104" fill="none" xmlns="http://www.w3.org/2000/svg">
<g id="Group 1000006661">
<circle id="Ellipse 146" cx="52" cy="52" r="51.5" fill="var(--fill-0, #0E1012)" stroke="url(#paint0_linear_10387_606)"/>
<g id="language">
<mask id="mask0_10387_606" style="mask-type:alpha" maskUnits="userSpaceOnUse" x="32" y="32" width="40" height="40">
<rect id="Bounding box" x="32" y="32" width="40" height="40" fill="var(--fill-0, #D9D9D9)"/>
</mask>
<g mask="url(#mask0_10387_606)">
<path id="language_2" d="M51.9987 68.6673C49.7209 68.6673 47.5681 68.2298 45.5404 67.3548C43.5126 66.4798 41.7418 65.2854 40.2279 63.7715C38.714 62.2576 37.5195 60.4868 36.6445 58.459C35.7695 56.4312 35.332 54.2784 35.332 52.0007C35.332 49.6951 35.7695 47.5354 36.6445 45.5215C37.5195 43.5076 38.714 41.7437 40.2279 40.2298C41.7418 38.7159 43.5126 37.5215 45.5404 36.6465C47.5681 35.7715 49.7209 35.334 51.9987 35.334C54.3043 35.334 56.464 35.7715 58.4779 36.6465C60.4918 37.5215 62.2556 38.7159 63.7695 40.2298C65.2834 41.7437 66.4779 43.5076 67.3529 45.5215C68.2279 47.5354 68.6654 49.6951 68.6654 52.0007C68.6654 54.2784 68.2279 56.4312 67.3529 58.459C66.4779 60.4868 65.2834 62.2576 63.7695 63.7715C62.2556 65.2854 60.4918 66.4798 58.4779 67.3548C56.464 68.2298 54.3043 68.6673 51.9987 68.6673ZM51.9987 65.2507C52.7209 64.2507 53.3459 63.209 53.8737 62.1257C54.4015 61.0423 54.832 59.8895 55.1654 58.6673H48.832C49.1654 59.8895 49.5959 61.0423 50.1237 62.1257C50.6515 63.209 51.2765 64.2507 51.9987 65.2507ZM47.6654 64.584C47.1654 63.6673 46.7279 62.7159 46.3529 61.7298C45.9779 60.7437 45.6654 59.7229 45.4154 58.6673H40.4987C41.3043 60.0562 42.3112 61.2645 43.5195 62.2923C44.7279 63.3201 46.1098 64.084 47.6654 64.584ZM56.332 64.584C57.8876 64.084 59.2695 63.3201 60.4779 62.2923C61.6862 61.2645 62.6931 60.0562 63.4987 58.6673H58.582C58.332 59.7229 58.0195 60.7437 57.6445 61.7298C57.2695 62.7159 56.832 63.6673 56.332 64.584ZM39.082 55.334H44.7487C44.6654 54.7784 44.6029 54.2298 44.5612 53.6882C44.5195 53.1465 44.4987 52.584 44.4987 52.0007C44.4987 51.4173 44.5195 50.8548 44.5612 50.3132C44.6029 49.7715 44.6654 49.2229 44.7487 48.6673H39.082C38.9431 49.2229 38.839 49.7715 38.7695 50.3132C38.7001 50.8548 38.6654 51.4173 38.6654 52.0007C38.6654 52.584 38.7001 53.1465 38.7695 53.6882C38.839 54.2298 38.9431 54.7784 39.082 55.334ZM48.082 55.334H55.9154C55.9987 54.7784 56.0612 54.2298 56.1029 53.6882C56.1445 53.1465 56.1654 52.584 56.1654 52.0007C56.1654 51.4173 56.1445 50.8548 56.1029 50.3132C56.0612 49.7715 55.9987 49.2229 55.9154 48.6673H48.082C47.9987 49.2229 47.9362 49.7715 47.8945 50.3132C47.8529 50.8548 47.832 51.4173 47.832 52.0007C47.832 52.584 47.8529 53.1465 47.8945 53.6882C47.9362 54.2298 47.9987 54.7784 48.082 55.334ZM59.2487 55.334H64.9154C65.0543 54.7784 65.1584 54.2298 65.2279 53.6882C65.2973 53.1465 65.332 52.584 65.332 52.0007C65.332 51.4173 65.2973 50.8548 65.2279 50.3132C65.1584 49.7715 65.0543 49.2229 64.9154 48.6673H59.2487C59.332 49.2229 59.3945 49.7715 59.4362 50.3132C59.4779 50.8548 59.4987 51.4173 59.4987 52.0007C59.4987 52.584 59.4779 53.1465 59.4362 53.6882C59.3945 54.2298 59.332 54.7784 59.2487 55.334ZM58.582 45.334H63.4987C62.6931 43.9451 61.6862 42.7368 60.4779 41.709C59.2695 40.6812 57.8876 39.9173 56.332 39.4173C56.832 40.334 57.2695 41.2854 57.6445 42.2715C58.0195 43.2576 58.332 44.2784 58.582 45.334ZM48.832 45.334H55.1654C54.832 44.1118 54.4015 42.959 53.8737 41.8757C53.3459 40.7923 52.7209 39.7507 51.9987 38.7507C51.2765 39.7507 50.6515 40.7923 50.1237 41.8757C49.5959 42.959 49.1654 44.1118 48.832 45.334ZM40.4987 45.334H45.4154C45.6654 44.2784 45.9779 43.2576 46.3529 42.2715C46.7279 41.2854 47.1654 40.334 47.6654 39.4173C46.1098 39.9173 44.7279 40.6812 43.5195 41.709C42.3112 42.7368 41.3043 43.9451 40.4987 45.334Z" fill="var(--fill-0, white)"/>
</g>
</g>
</g>
<defs>
<linearGradient id="paint0_linear_10387_606" x1="104" y1="52" x2="0" y2="52" gradientUnits="userSpaceOnUse">
<stop stop-color="#A61651"/>
<stop offset="1" stop-color="#01ADF1"/>
</linearGradient>
</defs>
</svg>
