<svg preserveAspectRatio="none" width="100%" height="100%" overflow="visible" style="display: block;" viewBox="0 0 104 104" fill="none" xmlns="http://www.w3.org/2000/svg">
<g id="Group 1000006661">
<circle id="Ellipse 146" cx="52" cy="52" r="51.5" fill="var(--fill-0, #0E1012)" stroke="url(#paint0_linear_10387_570)"/>
<g id="photo_camera">
<mask id="mask0_10387_570" style="mask-type:alpha" maskUnits="userSpaceOnUse" x="32" y="32" width="40" height="40">
<rect id="Bounding box" x="32" y="32" width="40" height="40" fill="var(--fill-0, #D9D9D9)"/>
</mask>
<g mask="url(#mask0_10387_570)">
<path id="photo_camera_2" d="M51.9987 61.1667C54.082 61.1667 55.8529 60.4375 57.3112 58.9792C58.7695 57.5208 59.4987 55.75 59.4987 53.6667C59.4987 51.5833 58.7695 49.8125 57.3112 48.3542C55.8529 46.8958 54.082 46.1667 51.9987 46.1667C49.9154 46.1667 48.1445 46.8958 46.6862 48.3542C45.2279 49.8125 44.4987 51.5833 44.4987 53.6667C44.4987 55.75 45.2279 57.5208 46.6862 58.9792C48.1445 60.4375 49.9154 61.1667 51.9987 61.1667ZM51.9987 57.8333C50.832 57.8333 49.8459 57.4306 49.0404 56.625C48.2348 55.8194 47.832 54.8333 47.832 53.6667C47.832 52.5 48.2348 51.5139 49.0404 50.7083C49.8459 49.9028 50.832 49.5 51.9987 49.5C53.1654 49.5 54.1515 49.9028 54.957 50.7083C55.7626 51.5139 56.1654 52.5 56.1654 53.6667C56.1654 54.8333 55.7626 55.8194 54.957 56.625C54.1515 57.4306 53.1654 57.8333 51.9987 57.8333ZM38.6654 67C37.7487 67 36.964 66.6736 36.3112 66.0208C35.6584 65.3681 35.332 64.5833 35.332 63.6667V43.6667C35.332 42.75 35.6584 41.9653 36.3112 41.3125C36.964 40.6597 37.7487 40.3333 38.6654 40.3333H43.9154L46.9987 37H56.9987L60.082 40.3333H65.332C66.2487 40.3333 67.0334 40.6597 67.6862 41.3125C68.339 41.9653 68.6654 42.75 68.6654 43.6667V63.6667C68.6654 64.5833 68.339 65.3681 67.6862 66.0208C67.0334 66.6736 66.2487 67 65.332 67H38.6654Z" fill="var(--fill-0, white)"/>
</g>
</g>
</g>
<defs>
<linearGradient id="paint0_linear_10387_570" x1="104" y1="52" x2="0" y2="52" gradientUnits="userSpaceOnUse">
<stop stop-color="#A61651"/>
<stop offset="1" stop-color="#01ADF1"/>
</linearGradient>
</defs>
</svg>
