<svg preserveAspectRatio="none" width="100%" height="100%" overflow="visible" style="display: block;" viewBox="0 0 104 104" fill="none" xmlns="http://www.w3.org/2000/svg">
<g id="Group 1000006661">
<circle id="Ellipse 146" cx="52" cy="52" r="51.5" fill="var(--fill-0, #0E1012)" stroke="url(#paint0_linear_10387_622)"/>
<g id="auto_transmission">
<mask id="mask0_10387_622" style="mask-type:alpha" maskUnits="userSpaceOnUse" x="32" y="32" width="40" height="40">
<rect id="Bounding box" x="32" y="32" width="40" height="40" fill="var(--fill-0, #D9D9D9)"/>
</mask>
<g mask="url(#mask0_10387_622)">
<path id="auto_transmission_2" d="M38.668 67C37.2791 67 36.0985 66.5139 35.1263 65.5417C34.1541 64.5694 33.668 63.3889 33.668 62C33.668 60.9167 33.9805 59.9444 34.6055 59.0833C35.2305 58.2222 36.0291 57.625 37.0013 57.2917V46.7083C36.0291 46.375 35.2305 45.7778 34.6055 44.9167C33.9805 44.0556 33.668 43.0833 33.668 42C33.668 40.6111 34.1541 39.4306 35.1263 38.4583C36.0985 37.4861 37.2791 37 38.668 37C40.0569 37 41.2374 37.4861 42.2096 38.4583C43.1819 39.4306 43.668 40.6111 43.668 42C43.668 43.0833 43.3555 44.0556 42.7305 44.9167C42.1055 45.7778 41.3069 46.375 40.3346 46.7083V50.3333H50.3346V46.7083C49.3624 46.375 48.5638 45.7778 47.9388 44.9167C47.3138 44.0556 47.0013 43.0833 47.0013 42C47.0013 40.6111 47.4874 39.4306 48.4596 38.4583C49.4319 37.4861 50.6124 37 52.0013 37C53.3902 37 54.5707 37.4861 55.543 38.4583C56.5152 39.4306 57.0013 40.6111 57.0013 42C57.0013 43.0833 56.6888 44.0556 56.0638 44.9167C55.4388 45.7778 54.6402 46.375 53.668 46.7083V50.3333H62.0013C62.4735 50.3333 62.8694 50.1736 63.1888 49.8542C63.5082 49.5347 63.668 49.1389 63.668 48.6667V46.7083C62.6957 46.375 61.8971 45.7778 61.2721 44.9167C60.6471 44.0556 60.3346 43.0833 60.3346 42C60.3346 40.6111 60.8207 39.4306 61.793 38.4583C62.7652 37.4861 63.9457 37 65.3346 37C66.7235 37 67.9041 37.4861 68.8763 38.4583C69.8485 39.4306 70.3346 40.6111 70.3346 42C70.3346 43.0833 70.0221 44.0556 69.3971 44.9167C68.7721 45.7778 67.9735 46.375 67.0013 46.7083V48.6667C67.0013 50.0556 66.5152 51.2361 65.543 52.2083C64.5707 53.1806 63.3902 53.6667 62.0013 53.6667H53.668V57.2917C54.6402 57.625 55.4388 58.2222 56.0638 59.0833C56.6888 59.9444 57.0013 60.9167 57.0013 62C57.0013 63.3889 56.5152 64.5694 55.543 65.5417C54.5707 66.5139 53.3902 67 52.0013 67C50.6124 67 49.4319 66.5139 48.4596 65.5417C47.4874 64.5694 47.0013 63.3889 47.0013 62C47.0013 60.9167 47.3138 59.9444 47.9388 59.0833C48.5638 58.2222 49.3624 57.625 50.3346 57.2917V53.6667H40.3346V57.2917C41.3069 57.625 42.1055 58.2222 42.7305 59.0833C43.3555 59.9444 43.668 60.9167 43.668 62C43.668 63.3889 43.1819 64.5694 42.2096 65.5417C41.2374 66.5139 40.0569 67 38.668 67Z" fill="var(--fill-0, white)"/>
</g>
</g>
</g>
<defs>
<linearGradient id="paint0_linear_10387_622" x1="104" y1="52" x2="0" y2="52" gradientUnits="userSpaceOnUse">
<stop stop-color="#A61651"/>
<stop offset="1" stop-color="#01ADF1"/>
</linearGradient>
</defs>
</svg>
