<svg preserveAspectRatio="none" width="100%" height="100%" overflow="visible" style="display: block;" viewBox="0 0 104 104" fill="none" xmlns="http://www.w3.org/2000/svg">
<g id="Group 1000006661">
<circle id="Ellipse 146" cx="52" cy="52" r="51.5" fill="var(--fill-0, #0E1012)" stroke="url(#paint0_linear_10387_616)"/>
<g id="shield_lock">
<mask id="mask0_10387_616" style="mask-type:alpha" maskUnits="userSpaceOnUse" x="32" y="32" width="40" height="40">
<rect id="Bounding box" x="32" y="32" width="40" height="40" fill="var(--fill-0, #D9D9D9)"/>
</mask>
<g mask="url(#mask0_10387_616)">
<path id="shield_lock_2" d="M52.0013 68.6673C48.1402 67.6951 44.9527 65.4798 42.4388 62.0215C39.9249 58.5632 38.668 54.7229 38.668 50.5007V40.334L52.0013 35.334L65.3346 40.334V50.5007C65.3346 54.7229 64.0777 58.5632 61.5638 62.0215C59.0499 65.4798 55.8624 67.6951 52.0013 68.6673ZM48.668 58.6673H55.3346C55.8069 58.6673 56.2027 58.5076 56.5221 58.1882C56.8416 57.8687 57.0013 57.4729 57.0013 57.0007V52.0007C57.0013 51.5284 56.8416 51.1326 56.5221 50.8132C56.2027 50.4937 55.8069 50.334 55.3346 50.334V48.6673C55.3346 47.7507 55.0082 46.9659 54.3555 46.3132C53.7027 45.6604 52.918 45.334 52.0013 45.334C51.0846 45.334 50.2999 45.6604 49.6471 46.3132C48.9944 46.9659 48.668 47.7507 48.668 48.6673V50.334C48.1957 50.334 47.7999 50.4937 47.4805 50.8132C47.161 51.1326 47.0013 51.5284 47.0013 52.0007V57.0007C47.0013 57.4729 47.161 57.8687 47.4805 58.1882C47.7999 58.5076 48.1957 58.6673 48.668 58.6673ZM50.3346 50.334V48.6673C50.3346 48.1951 50.4944 47.7993 50.8138 47.4798C51.1332 47.1604 51.5291 47.0007 52.0013 47.0007C52.4735 47.0007 52.8694 47.1604 53.1888 47.4798C53.5082 47.7993 53.668 48.1951 53.668 48.6673V50.334H50.3346Z" fill="var(--fill-0, white)"/>
</g>
</g>
</g>
<defs>
<linearGradient id="paint0_linear_10387_616" x1="104" y1="52" x2="0" y2="52" gradientUnits="userSpaceOnUse">
<stop stop-color="#A61651"/>
<stop offset="1" stop-color="#01ADF1"/>
</linearGradient>
</defs>
</svg>
