<svg preserveAspectRatio="none" width="100%" height="100%" overflow="visible" style="display: block;" viewBox="0 0 104 104" fill="none" xmlns="http://www.w3.org/2000/svg">
<g id="Group 1000006661">
<circle id="Ellipse 146" cx="52" cy="52" r="51.5" fill="var(--fill-0, #0E1012)" stroke="url(#paint0_linear_10387_588)"/>
<g id="lock">
<mask id="mask0_10387_588" style="mask-type:alpha" maskUnits="userSpaceOnUse" x="31" y="31" width="41" height="41">
<rect id="Bounding box" x="31.7871" y="31.9043" width="40" height="40" fill="var(--fill-0, #D9D9D9)"/>
</mask>
<g mask="url(#mask0_10387_588)">
<path id="lock_2" d="M41.7871 68.571C40.8704 68.571 40.0857 68.2446 39.4329 67.5918C38.7802 66.939 38.4538 66.1543 38.4538 65.2376V48.571C38.4538 47.6543 38.7802 46.8696 39.4329 46.2168C40.0857 45.564 40.8704 45.2376 41.7871 45.2376H43.4538V41.9043C43.4538 39.5987 44.2663 37.6335 45.8913 36.0085C47.5163 34.3835 49.4816 33.571 51.7871 33.571C54.0927 33.571 56.0579 34.3835 57.6829 36.0085C59.3079 37.6335 60.1204 39.5987 60.1204 41.9043V45.2376H61.7871C62.7038 45.2376 63.4885 45.564 64.1413 46.2168C64.7941 46.8696 65.1204 47.6543 65.1204 48.571V65.2376C65.1204 66.1543 64.7941 66.939 64.1413 67.5918C63.4885 68.2446 62.7038 68.571 61.7871 68.571H41.7871ZM51.7871 60.2376C52.7038 60.2376 53.4885 59.9112 54.1413 59.2585C54.7941 58.6057 55.1204 57.821 55.1204 56.9043C55.1204 55.9876 54.7941 55.2029 54.1413 54.5501C53.4885 53.8974 52.7038 53.571 51.7871 53.571C50.8704 53.571 50.0857 53.8974 49.4329 54.5501C48.7802 55.2029 48.4538 55.9876 48.4538 56.9043C48.4538 57.821 48.7802 58.6057 49.4329 59.2585C50.0857 59.9112 50.8704 60.2376 51.7871 60.2376ZM46.7871 45.2376H56.7871V41.9043C56.7871 40.5154 56.301 39.3349 55.3288 38.3626C54.3566 37.3904 53.176 36.9043 51.7871 36.9043C50.3982 36.9043 49.2177 37.3904 48.2454 38.3626C47.2732 39.3349 46.7871 40.5154 46.7871 41.9043V45.2376Z" fill="var(--fill-0, white)"/>
</g>
</g>
</g>
<defs>
<linearGradient id="paint0_linear_10387_588" x1="104" y1="52" x2="0" y2="52" gradientUnits="userSpaceOnUse">
<stop stop-color="#A61651"/>
<stop offset="1" stop-color="#01ADF1"/>
</linearGradient>
</defs>
</svg>
