<svg preserveAspectRatio="none" width="100%" height="100%" overflow="visible" style="display: block;" viewBox="0 0 104 104" fill="none" xmlns="http://www.w3.org/2000/svg">
<g id="Group 1000006661">
<circle id="Ellipse 146" cx="52" cy="52" r="51.5" fill="var(--fill-0, #0E1012)" stroke="url(#paint0_linear_10387_628)"/>
<g id="price_check">
<mask id="mask0_10387_628" style="mask-type:alpha" maskUnits="userSpaceOnUse" x="32" y="32" width="40" height="40">
<rect id="Bounding box" x="32" y="32" width="40" height="40" fill="var(--fill-0, #D9D9D9)"/>
</mask>
<g mask="url(#mask0_10387_628)">
<path id="price_check_2" d="M42.8346 56.957V55.2904H38.668V51.957H47.0013V48.6237H40.3346C39.8624 48.6237 39.4666 48.464 39.1471 48.1445C38.8277 47.8251 38.668 47.4293 38.668 46.957V40.2904C38.668 39.8181 38.8277 39.4223 39.1471 39.1029C39.4666 38.7834 39.8624 38.6237 40.3346 38.6237H42.8346V36.957H46.168V38.6237H50.3346V41.957H42.0013V45.2904H48.668C49.1402 45.2904 49.536 45.4501 49.8555 45.7695C50.1749 46.089 50.3346 46.4848 50.3346 46.957V53.6237C50.3346 54.0959 50.1749 54.4918 49.8555 54.8112C49.536 55.1306 49.1402 55.2904 48.668 55.2904H46.168V56.957H42.8346ZM55.2513 66.957L48.168 59.8737L50.5013 57.5404L55.2513 62.2904L64.668 52.8737L67.0013 55.207L55.2513 66.957Z" fill="var(--fill-0, white)"/>
</g>
</g>
</g>
<defs>
<linearGradient id="paint0_linear_10387_628" x1="104" y1="52" x2="0" y2="52" gradientUnits="userSpaceOnUse">
<stop stop-color="#A61651"/>
<stop offset="1" stop-color="#01ADF1"/>
</linearGradient>
</defs>
</svg>
