<svg preserveAspectRatio="none" width="100%" height="100%" overflow="visible" style="display: block;" viewBox="0 0 104 104" fill="none" xmlns="http://www.w3.org/2000/svg">
<g id="Group 1000006661">
<circle id="Ellipse 146" cx="52" cy="52" r="51.5" fill="#0E1012" stroke="url(#paint0_linear_10387_600)"/>
<g id="calendar_lock">
<mask id="mask0_10387_600" style="mask-type:alpha" maskUnits="userSpaceOnUse" x="32" y="32" width="40" height="40">
<rect id="Bounding box" x="32" y="32" width="40" height="40" fill="#D9D9D9"/>
</mask>
<g mask="url(#mask0_10387_600)">
<path id="calendar_lock_2" d="M40.3333 68.6673C39.4167 68.6673 38.6319 68.3409 37.9792 67.6882C37.3264 67.0354 37 66.2507 37 65.334V42.0007C37 41.084 37.3264 40.2993 37.9792 39.6465C38.6319 38.9937 39.4167 38.6673 40.3333 38.6673H42V35.334H45.3333V38.6673H58.6667V35.334H62V38.6673H63.6667C64.5833 38.6673 65.3681 38.9937 66.0208 39.6465C66.6736 40.2993 67 41.084 67 42.0007V52.0007H63.6667V48.6673H40.3333V65.334H55.3333V68.6673H40.3333ZM60.0833 68.6673C59.6944 68.6673 59.3611 68.5284 59.0833 68.2507C58.8056 67.9729 58.6667 67.6395 58.6667 67.2506V61.7507C58.6667 61.3618 58.8056 61.0284 59.0833 60.7507C59.3611 60.4729 59.6944 60.334 60.0833 60.334H60.3333V58.6673C60.3333 57.7507 60.6597 56.9659 61.3125 56.3132C61.9653 55.6604 62.75 55.334 63.6667 55.334C64.5833 55.334 65.3681 55.6604 66.0208 56.3132C66.6736 56.9659 67 57.7507 67 58.6673V60.334H67.25C67.6389 60.334 67.9722 60.4729 68.25 60.7507C68.5278 61.0284 68.6667 61.3618 68.6667 61.7507V67.2506C68.6667 67.6395 68.5278 67.9729 68.25 68.2507C67.9722 68.5284 67.6389 68.6673 67.25 68.6673H60.0833ZM62 60.334H65.3333V58.6673C65.3333 58.1951 65.1736 57.7993 64.8542 57.4798C64.5347 57.1604 64.1389 57.0007 63.6667 57.0007C63.1944 57.0007 62.7986 57.1604 62.4792 57.4798C62.1597 57.7993 62 58.1951 62 58.6673V60.334Z" fill="white"/>
</g>
</g>
</g>
<defs>
<linearGradient id="paint0_linear_10387_600" x1="104" y1="52" x2="0" y2="52" gradientUnits="userSpaceOnUse">
<stop stop-color="#A61651"/>
<stop offset="1" stop-color="#01ADF1"/>
</linearGradient>
</defs>
</svg>
