<svg preserveAspectRatio="none" width="100%" height="100%" overflow="visible" style="display: block;" viewBox="0 0 104 104" fill="none" xmlns="http://www.w3.org/2000/svg">
<g id="Group 1000006661">
<circle id="Ellipse 146" cx="52" cy="52" r="51.5" fill="var(--fill-0, #0E1012)" stroke="url(#paint0_linear_10387_634)"/>
<g id="volunteer_activism">
<mask id="mask0_10387_634" style="mask-type:alpha" maskUnits="userSpaceOnUse" x="32" y="32" width="40" height="40">
<rect id="Bounding box" x="32" y="32" width="40" height="40" fill="var(--fill-0, #D9D9D9)"/>
</mask>
<g mask="url(#mask0_10387_634)">
<path id="volunteer_activism_2" d="M43.6641 65.3737V50.332H46.3307C46.5252 50.332 46.7196 50.3529 46.9141 50.3945C47.1085 50.4362 47.303 50.4848 47.4974 50.5404L59.0391 54.832C59.428 54.9709 59.7405 55.2209 59.9766 55.582C60.2127 55.9431 60.3307 56.3181 60.3307 56.707C60.3307 57.2904 60.1293 57.7626 59.7266 58.1237C59.3238 58.4848 58.8585 58.6654 58.3307 58.6654H53.9557C53.8168 58.6654 53.7127 58.6584 53.6432 58.6445C53.5738 58.6306 53.4835 58.5959 53.3724 58.5404L50.7057 57.4987L50.1641 59.1237L53.3724 60.2487C53.428 60.2765 53.5113 60.2973 53.6224 60.3112C53.7335 60.3251 53.8307 60.332 53.9141 60.332H65.3307C66.2196 60.332 66.9974 60.6515 67.6641 61.2904C68.3307 61.9293 68.6641 62.7209 68.6641 63.6654L55.3724 68.6654L43.6641 65.3737ZM33.6641 68.6654V50.332H40.3307V68.6654H33.6641ZM58.6641 53.6654L51.7474 46.9154C50.8863 46.082 50.1571 45.1584 49.5599 44.1445C48.9627 43.1306 48.6641 42.0265 48.6641 40.832C48.6641 39.3043 49.1988 38.0056 50.2682 36.9362C51.3377 35.8668 52.6363 35.332 54.1641 35.332C55.053 35.332 55.8863 35.5195 56.6641 35.8945C57.4418 36.2695 58.1085 36.7765 58.6641 37.4154C59.2196 36.7765 59.8863 36.2695 60.6641 35.8945C61.4418 35.5195 62.2752 35.332 63.1641 35.332C64.6918 35.332 65.9905 35.8668 67.0599 36.9362C68.1293 38.0056 68.6641 39.3043 68.6641 40.832C68.6641 42.0265 68.3724 43.1306 67.7891 44.1445C67.2057 45.1584 66.4835 46.082 65.6224 46.9154L58.6641 53.6654Z" fill="var(--fill-0, white)"/>
</g>
</g>
</g>
<defs>
<linearGradient id="paint0_linear_10387_634" x1="104" y1="52" x2="0" y2="52" gradientUnits="userSpaceOnUse">
<stop stop-color="#A61651"/>
<stop offset="1" stop-color="#01ADF1"/>
</linearGradient>
</defs>
</svg>
