<svg preserveAspectRatio="none" width="100%" height="100%" overflow="visible" style="display: block;" viewBox="0 0 16 16" fill="none" xmlns="http://www.w3.org/2000/svg">
<g id="radio_button_unchecked">
<mask id="mask0_10351_185" style="mask-type:alpha" maskUnits="userSpaceOnUse" x="0" y="0" width="16" height="16">
<rect id="Bounding box" width="16" height="16" fill="#D9D9D9"/>
</mask>
<g mask="url(#mask0_10351_185)">
<path id="radio_button_unchecked_2" d="M7.99992 14.6666C7.0777 14.6666 6.21103 14.4916 5.39992 14.1416C4.58881 13.7916 3.88326 13.3166 3.28326 12.7166C2.68326 12.1166 2.20826 11.411 1.85826 10.5999C1.50826 9.78881 1.33326 8.92214 1.33326 7.99992C1.33326 7.0777 1.50826 6.21103 1.85826 5.39992C2.20826 4.58881 2.68326 3.88326 3.28326 3.28326C3.88326 2.68326 4.58881 2.20826 5.39992 1.85826C6.21103 1.50826 7.0777 1.33326 7.99992 1.33326C8.92214 1.33326 9.78881 1.50826 10.5999 1.85826C11.411 2.20826 12.1166 2.68326 12.7166 3.28326C13.3166 3.88326 13.7916 4.58881 14.1416 5.39992C14.4916 6.21103 14.6666 7.0777 14.6666 7.99992C14.6666 8.92214 14.4916 9.78881 14.1416 10.5999C13.7916 11.411 13.3166 12.1166 12.7166 12.7166C12.1166 13.3166 11.411 13.7916 10.5999 14.1416C9.78881 14.4916 8.92214 14.6666 7.99992 14.6666ZM7.99992 13.3333C9.48881 13.3333 10.7499 12.8166 11.7833 11.7833C12.8166 10.7499 13.3333 9.48881 13.3333 7.99992C13.3333 6.51103 12.8166 5.24992 11.7833 4.21659C10.7499 3.18326 9.48881 2.66659 7.99992 2.66659C6.51103 2.66659 5.24992 3.18326 4.21659 4.21659C3.18326 5.24992 2.66659 6.51103 2.66659 7.99992C2.66659 9.48881 3.18326 10.7499 4.21659 11.7833C5.24992 12.8166 6.51103 13.3333 7.99992 13.3333Z" fill="#5D5D5D"/>
</g>
</g>
</svg>
