<svg preserveAspectRatio="none" width="100%" height="100%" overflow="visible" style="display: block;" viewBox="0 0 17.4062 17.4062" fill="none" xmlns="http://www.w3.org/2000/svg">
<g id="visibility_off">
<mask id="mask0_10350_164" style="mask-type:alpha" maskUnits="userSpaceOnUse" x="0" y="0" width="18" height="18">
<rect id="Bounding box" width="17.4062" height="17.4062" fill="var(--fill-0, #D9D9D9)"/>
</mask>
<g mask="url(#mask0_10350_164)">
<path id="visibility_off_2" d="M11.6767 9.646L10.6251 8.59437C10.7339 8.02625 10.5707 7.49439 10.1355 6.9988C9.70036 6.5032 9.13828 6.3098 8.44928 6.41859L7.39766 5.36696C7.60315 5.27026 7.81166 5.19774 8.02319 5.14938C8.23473 5.10103 8.46137 5.07686 8.70313 5.07686C9.6097 5.07686 10.3803 5.39416 11.0149 6.02876C11.6495 6.66337 11.9668 7.43396 11.9668 8.34053C11.9668 8.58228 11.9426 8.80893 11.8943 9.02046C11.8459 9.232 11.7734 9.44051 11.6767 9.646ZM13.9975 11.9306L12.9459 10.9152C13.4052 10.5647 13.8132 10.1809 14.1698 9.76385C14.5264 9.34683 14.8316 8.87239 15.0854 8.34053C14.481 7.11968 13.6137 6.14964 12.4835 5.43042C11.3533 4.71121 10.0932 4.3516 8.70313 4.3516C8.35258 4.3516 8.00808 4.37577 7.66963 4.42412C7.33117 4.47247 6.99876 4.545 6.6724 4.6417L5.54824 3.51755C6.04384 3.31206 6.55152 3.15794 7.07129 3.0552C7.59106 2.95245 8.135 2.90108 8.70313 2.90108C10.5284 2.90108 12.1542 3.40574 13.5805 4.41506C15.0068 5.42438 16.0403 6.73287 16.681 8.34053C16.403 9.0537 16.0373 9.7155 15.584 10.3259C15.1307 10.9364 14.6019 11.4712 13.9975 11.9306ZM14.3602 16.3909L11.3141 13.3811C10.891 13.5141 10.4649 13.6138 10.0358 13.6803C9.60668 13.7467 9.16246 13.78 8.70313 13.78C6.87789 13.78 5.25209 13.2753 3.82575 12.266C2.3994 11.2567 1.36591 9.94819 0.72526 8.34053C0.979102 7.69988 1.29942 7.10457 1.68623 6.55458C2.07304 6.00459 2.51424 5.51201 3.00983 5.07686L1.01536 3.04613L2.03073 2.03076L15.3755 15.3756L14.3602 16.3909ZM4.0252 6.09222C3.67465 6.4065 3.35433 6.751 3.06423 7.12572C2.77412 7.50044 2.52632 7.90537 2.32083 8.34053C2.92522 9.56139 3.79251 10.5314 4.92271 11.2506C6.0529 11.9699 7.31304 12.3295 8.70313 12.3295C8.94488 12.3295 9.18059 12.3144 9.41025 12.2841C9.63992 12.2539 9.87563 12.2207 10.1174 12.1844L9.46465 11.4954C9.33168 11.5317 9.20476 11.5589 9.08389 11.577C8.96301 11.5951 8.83609 11.6042 8.70313 11.6042C7.79655 11.6042 7.02596 11.2869 6.39136 10.6523C5.75675 10.0177 5.43945 9.24711 5.43945 8.34053C5.43945 8.20757 5.44852 8.08065 5.46665 7.95977C5.48478 7.83889 5.51198 7.71197 5.54824 7.57901L4.0252 6.09222Z" fill="var(--fill-0, #B4B4B4)"/>
</g>
</g>
</svg>
