<svg viewBox="0 0 70 70" fill="none" xmlns="http://www.w3.org/2000/svg">
<path id="chat_2" d="M17.5 40.8333H40.8333V35H17.5V40.8333ZM17.5 32.0833H52.5V26.25H17.5V32.0833ZM17.5 23.3333H52.5V17.5H17.5V23.3333ZM5.83333 64.1667V11.6667C5.83333 10.0625 6.40451 8.68924 7.54688 7.54688C8.68924 6.40451 10.0625 5.83333 11.6667 5.83333H58.3333C59.9375 5.83333 61.3108 6.40451 62.4531 7.54688C63.5955 8.68924 64.1667 10.0625 64.1667 11.6667V46.6667C64.1667 48.2708 63.5955 49.6441 62.4531 50.7865C61.3108 51.9288 59.9375 52.5 58.3333 52.5H17.5L5.83333 64.1667ZM15.0208 46.6667H58.3333V11.6667H11.6667V49.9479L15.0208 46.6667Z" fill="#5D5D5D"/>
</svg>
