<svg viewBox="0 0 70 70" fill="none" xmlns="http://www.w3.org/2000/svg">
<path id="diversity_1_2" d="M2.77083 38.7917C1.89583 37.0417 1.21528 35.2674 0.729167 33.4688C0.243056 31.6701 0 29.8472 0 28C0 22.5556 1.84722 17.9861 5.54167 14.2917C9.23611 10.5972 13.8056 8.75 19.25 8.75C22.3125 8.75 25.2292 9.3941 28 10.6823C30.7708 11.9705 33.1042 13.7569 35 16.0417C36.8958 13.7569 39.2292 11.9705 42 10.6823C44.7708 9.3941 47.6875 8.75 50.75 8.75C56.1944 8.75 60.7639 10.5972 64.4583 14.2917C68.1528 17.9861 70 22.5556 70 28C70 29.8472 69.7569 31.6701 69.2708 33.4688C68.7847 35.2674 68.1042 37.0417 67.2292 38.7917C66.6944 37.8681 66.0625 37.0417 65.3333 36.3125C64.6042 35.5833 63.7535 35 62.7813 34.5625C63.2188 33.4444 63.559 32.3507 63.8021 31.2813C64.0451 30.2118 64.1667 29.1181 64.1667 28C64.1667 24.2083 62.8785 21.0243 60.3021 18.4479C57.7257 15.8715 54.5417 14.5833 50.75 14.5833C46.8125 14.5833 43.7865 15.6649 41.6719 17.8281C39.5573 19.9913 37.3333 22.4097 35 25.0833C32.6667 22.3611 30.4427 19.9306 28.3281 17.7917C26.2135 15.6528 23.1875 14.5833 19.25 14.5833C15.4583 14.5833 12.2743 15.8715 9.69792 18.4479C7.12153 21.0243 5.83333 24.2083 5.83333 28C5.83333 29.1181 5.95486 30.2118 6.19792 31.2813C6.44097 32.3507 6.78125 33.4444 7.21875 34.5625C6.24653 35 5.39583 35.5833 4.66667 36.3125C3.9375 37.0417 3.30556 37.8681 2.77083 38.7917ZM0 64.1667V59.5729C0 57.434 1.0816 55.7205 3.24479 54.4323C5.40799 53.1441 8.21528 52.5 11.6667 52.5C12.2986 52.5 12.9063 52.5122 13.4896 52.5365C14.0729 52.5608 14.6319 52.6215 15.1667 52.7188C14.4861 53.691 13.9757 54.7361 13.6354 55.8542C13.2951 56.9722 13.125 58.1632 13.125 59.4271V64.1667H0ZM17.5 64.1667V59.4271C17.5 56.2674 19.1163 53.7153 22.349 51.7708C25.5816 49.8264 29.7986 48.8542 35 48.8542C40.25 48.8542 44.4792 49.8264 47.6875 51.7708C50.8958 53.7153 52.5 56.2674 52.5 59.4271V64.1667H17.5ZM56.875 64.1667V59.4271C56.875 58.1632 56.717 56.9722 56.401 55.8542C56.0851 54.7361 55.6111 53.691 54.9792 52.7188C55.5139 52.6215 56.0608 52.5608 56.6198 52.5365C57.1788 52.5122 57.75 52.5 58.3333 52.5C61.8333 52.5 64.6528 53.1441 66.7917 54.4323C68.9306 55.7205 70 57.434 70 59.5729V64.1667H56.875ZM11.6667 49.5833C10.0625 49.5833 8.68924 49.0122 7.54688 47.8698C6.40451 46.7274 5.83333 45.3542 5.83333 43.75C5.83333 42.0972 6.40451 40.7118 7.54688 39.5938C8.68924 38.4757 10.0625 37.9167 11.6667 37.9167C13.3194 37.9167 14.7049 38.4757 15.8229 39.5938C16.941 40.7118 17.5 42.0972 17.5 43.75C17.5 45.3542 16.941 46.7274 15.8229 47.8698C14.7049 49.0122 13.3194 49.5833 11.6667 49.5833ZM58.3333 49.5833C56.7292 49.5833 55.3559 49.0122 54.2135 47.8698C53.0712 46.7274 52.5 45.3542 52.5 43.75C52.5 42.0972 53.0712 40.7118 54.2135 39.5938C55.3559 38.4757 56.7292 37.9167 58.3333 37.9167C59.9861 37.9167 61.3715 38.4757 62.4896 39.5938C63.6076 40.7118 64.1667 42.0972 64.1667 43.75C64.1667 45.3542 63.6076 46.7274 62.4896 47.8698C61.3715 49.0122 59.9861 49.5833 58.3333 49.5833ZM35 46.6667C32.5694 46.6667 30.5035 45.816 28.8021 44.1146C27.1007 42.4132 26.25 40.3472 26.25 37.9167C26.25 35.4375 27.1007 33.3594 28.8021 31.6823C30.5035 30.0052 32.5694 29.1667 35 29.1667C37.4792 29.1667 39.5573 30.0052 41.2344 31.6823C42.9115 33.3594 43.75 35.4375 43.75 37.9167C43.75 40.3472 42.9115 42.4132 41.2344 44.1146C39.5573 45.816 37.4792 46.6667 35 46.6667Z" fill="#5D5D5D"/>
</svg>
