<svg preserveAspectRatio="none" width="100%" height="100%" overflow="visible" style="display: block;" viewBox="0 0 70 70" fill="none" xmlns="http://www.w3.org/2000/svg">
<g id="video_chat">
<mask id="mask0_10362_225" style="mask-type:alpha" maskUnits="userSpaceOnUse" x="0" y="0" width="70" height="70">
<rect id="Bounding box" width="70" height="70" fill="#D9D9D9"/>
</mask>
<g mask="url(#mask0_10362_225)">
<path id="video_chat_2" d="M23.3333 40.8333H40.8333C41.6597 40.8333 42.3524 40.5538 42.9115 39.9948C43.4705 39.4358 43.75 38.7431 43.75 37.9167V32.0833L49.5833 37.9167V20.4167L43.75 26.25V20.4167C43.75 19.5903 43.4705 18.8976 42.9115 18.3385C42.3524 17.7795 41.6597 17.5 40.8333 17.5H23.3333C22.5069 17.5 21.8142 17.7795 21.2552 18.3385C20.6962 18.8976 20.4167 19.5903 20.4167 20.4167V37.9167C20.4167 38.7431 20.6962 39.4358 21.2552 39.9948C21.8142 40.5538 22.5069 40.8333 23.3333 40.8333ZM5.83333 64.1667V11.6667C5.83333 10.0625 6.40451 8.68924 7.54688 7.54688C8.68924 6.40451 10.0625 5.83333 11.6667 5.83333H58.3333C59.9375 5.83333 61.3108 6.40451 62.4531 7.54688C63.5955 8.68924 64.1667 10.0625 64.1667 11.6667V46.6667C64.1667 48.2708 63.5955 49.6441 62.4531 50.7865C61.3108 51.9288 59.9375 52.5 58.3333 52.5H17.5L5.83333 64.1667Z" fill="#5D5D5D"/>
</g>
</g>
</svg>
