<svg preserveAspectRatio="none" width="100%" height="100%" overflow="visible" style="display: block;" viewBox="0 0 70 70" fill="none" xmlns="http://www.w3.org/2000/svg">
<g id="feature_search">
<mask id="mask0_10362_229" style="mask-type:alpha" maskUnits="userSpaceOnUse" x="0" y="0" width="70" height="70">
<rect id="Bounding box" width="70" height="70" fill="#D9D9D9"/>
</mask>
<g mask="url(#mask0_10362_229)">
<path id="feature_search_2" d="M56.2917 25.9583L65.625 35.2917L61.5417 39.375L52.2083 30.0417C51.1875 30.625 50.0938 31.1111 48.9271 31.5C47.7604 31.8889 46.5208 32.0833 45.2083 32.0833C41.5625 32.0833 38.4635 30.8073 35.9115 28.2552C33.3594 25.7031 32.0833 22.6042 32.0833 18.9583C32.0833 15.3125 33.3594 12.2135 35.9115 9.66146C38.4635 7.10938 41.5625 5.83333 45.2083 5.83333C48.8542 5.83333 51.9531 7.10938 54.5052 9.66146C57.0573 12.2135 58.3333 15.3125 58.3333 18.9583C58.3333 20.2708 58.1389 21.5104 57.75 22.6771C57.3611 23.8437 56.875 24.9375 56.2917 25.9583ZM45.2083 26.25C47.25 26.25 48.9757 25.5451 50.3854 24.1354C51.7951 22.7257 52.5 21 52.5 18.9583C52.5 16.9167 51.7951 15.191 50.3854 13.7813C48.9757 12.3715 47.25 11.6667 45.2083 11.6667C43.1667 11.6667 41.441 12.3715 40.0313 13.7813C38.6215 15.191 37.9167 16.9167 37.9167 18.9583C37.9167 21 38.6215 22.7257 40.0313 24.1354C41.441 25.5451 43.1667 26.25 45.2083 26.25ZM11.6667 64.1667C10.0625 64.1667 8.68924 63.5955 7.54688 62.4531C6.40451 61.3108 5.83333 59.9375 5.83333 58.3333V17.5C5.83333 15.8958 6.40451 14.5226 7.54688 13.3802C8.68924 12.2378 10.0625 11.6667 11.6667 11.6667H27.7083C27.1736 12.8819 26.809 14.1337 26.6146 15.4219C26.4201 16.7101 26.3229 17.9861 26.3229 19.25C26.3229 24.5486 28.1944 28.9722 31.9375 32.5208C35.6806 36.0694 40.1285 37.8437 45.2813 37.8437C46.2049 37.8437 47.1285 37.783 48.0521 37.6615C48.9757 37.5399 49.9236 37.3333 50.8958 37.0417L58.3333 44.4792V58.3333C58.3333 59.9375 57.7622 61.3108 56.6198 62.4531C55.4774 63.5955 54.1042 64.1667 52.5 64.1667H11.6667Z" fill="#5D5D5D"/>
</g>
</g>
</svg>
