<svg preserveAspectRatio="none" width="100%" height="100%" overflow="visible" style="display: block;" viewBox="0 0 26 26" fill="none" xmlns="http://www.w3.org/2000/svg">
<g id="other_houses">
<mask id="mask0_10362_235" style="mask-type:alpha" maskUnits="userSpaceOnUse" x="0" y="0" width="26" height="26">
<rect id="Bounding box" width="26" height="26" fill="#D9D9D9"/>
</mask>
<g mask="url(#mask0_10362_235)">
<path id="other_houses_2" d="M4.33203 22.75V12.5938L2.38203 14.0833L1.08203 12.35L12.9987 3.25L24.9154 12.35L23.6154 14.0563L21.6654 12.5938V22.75H4.33203ZM8.66536 16.25C8.35842 16.25 8.10113 16.1462 7.89349 15.9385C7.68585 15.7309 7.58203 15.4736 7.58203 15.1667C7.58203 14.8597 7.68585 14.6024 7.89349 14.3948C8.10113 14.1872 8.35842 14.0833 8.66536 14.0833C8.97231 14.0833 9.2296 14.1872 9.43724 14.3948C9.64488 14.6024 9.7487 14.8597 9.7487 15.1667C9.7487 15.4736 9.64488 15.7309 9.43724 15.9385C9.2296 16.1462 8.97231 16.25 8.66536 16.25ZM12.9987 16.25C12.6918 16.25 12.4345 16.1462 12.2268 15.9385C12.0192 15.7309 11.9154 15.4736 11.9154 15.1667C11.9154 14.8597 12.0192 14.6024 12.2268 14.3948C12.4345 14.1872 12.6918 14.0833 12.9987 14.0833C13.3056 14.0833 13.5629 14.1872 13.7706 14.3948C13.9782 14.6024 14.082 14.8597 14.082 15.1667C14.082 15.4736 13.9782 15.7309 13.7706 15.9385C13.5629 16.1462 13.3056 16.25 12.9987 16.25ZM17.332 16.25C17.0251 16.25 16.7678 16.1462 16.5602 15.9385C16.3525 15.7309 16.2487 15.4736 16.2487 15.1667C16.2487 14.8597 16.3525 14.6024 16.5602 14.3948C16.7678 14.1872 17.0251 14.0833 17.332 14.0833C17.639 14.0833 17.8963 14.1872 18.1039 14.3948C18.3115 14.6024 18.4154 14.8597 18.4154 15.1667C18.4154 15.4736 18.3115 15.7309 18.1039 15.9385C17.8963 16.1462 17.639 16.25 17.332 16.25Z" fill="#5D5D5D"/>
</g>
</g>
</svg>
