<svg width="25" height="25" viewBox="0 0 25 25" fill="none" xmlns="http://www.w3.org/2000/svg">
<path d="M4.16667 20.8333C3.59375 20.8333 3.10243 20.6293 2.69271 20.2214C2.28299 19.8134 2.07813 19.3229 2.07812 18.75V6.25C2.07812 5.67708 2.28299 5.18663 2.69271 4.77865C3.10243 4.37066 3.59375 4.16667 4.16667 4.16667H20.8333C21.4062 4.16667 21.8976 4.37066 22.3073 4.77865C22.717 5.18663 22.9219 5.67708 22.9219 6.25V18.75C22.9219 19.3229 22.717 19.8134 22.3073 20.2214C21.8976 20.6293 21.4062 20.8333 20.8333 20.8333H4.16667ZM12.5 13.5417L4.16667 8.33333V18.75H20.8333V8.33333L12.5 13.5417ZM12.5 11.4583L20.8333 6.25H4.16667L12.5 11.4583Z" fill="#F8F8F8"/>
</svg>
