<svg preserveAspectRatio="none" width="100%" height="100%" overflow="visible" style="display: block;" viewBox="0 0 70 70" fill="none" xmlns="http://www.w3.org/2000/svg">
<g id="sell">
<mask id="mask0_10362_201" style="mask-type:alpha" maskUnits="userSpaceOnUse" x="0" y="0" width="70" height="70">
<rect id="Bounding box" width="70" height="70" fill="#D9D9D9"/>
</mask>
<g mask="url(#mask0_10362_201)">
<path id="sell_2" d="M62.4167 41.5625L41.5625 62.4167C40.9792 63 40.3229 63.4375 39.5938 63.7292C38.8646 64.0208 38.1354 64.1667 37.4063 64.1667C36.6771 64.1667 35.9479 64.0208 35.2188 63.7292C34.4896 63.4375 33.8333 63 33.25 62.4167L7.51042 36.6771C6.97569 36.1424 6.5625 35.5226 6.27083 34.8177C5.97917 34.1128 5.83333 33.3715 5.83333 32.5937V11.6667C5.83333 10.0625 6.40451 8.68924 7.54688 7.54688C8.68924 6.40451 10.0625 5.83333 11.6667 5.83333H32.5938C33.3715 5.83333 34.125 5.99132 34.8542 6.30729C35.5833 6.62326 36.2153 7.04861 36.75 7.58333L62.4167 33.3229C63 33.9062 63.4253 34.5625 63.6927 35.2917C63.9601 36.0208 64.0938 36.75 64.0938 37.4792C64.0938 38.2083 63.9601 38.9253 63.6927 39.6302C63.4253 40.3351 63 40.9792 62.4167 41.5625ZM18.9583 23.3333C20.1736 23.3333 21.2066 22.908 22.0573 22.0573C22.908 21.2066 23.3333 20.1736 23.3333 18.9583C23.3333 17.7431 22.908 16.7101 22.0573 15.8594C21.2066 15.0087 20.1736 14.5833 18.9583 14.5833C17.7431 14.5833 16.7101 15.0087 15.8594 15.8594C15.0087 16.7101 14.5833 17.7431 14.5833 18.9583C14.5833 20.1736 15.0087 21.2066 15.8594 22.0573C16.7101 22.908 17.7431 23.3333 18.9583 23.3333Z" fill="#5D5D5D"/>
</g>
</g>
</svg>
