<svg preserveAspectRatio="none" width="100%" height="100%" overflow="visible" style="display: block;" viewBox="0 0 25 20.8333" fill="none" xmlns="http://www.w3.org/2000/svg">
<g id="Color-">
<path id="Twitter" fill-rule="evenodd" clip-rule="evenodd" d="M25 2.4663C24.0814 2.88462 23.0924 3.16751 22.0549 3.29391C23.1144 2.64386 23.9273 1.6131 24.3103 0.385221C23.3184 0.987123 22.2222 1.425 21.0512 1.65974C20.118 0.638014 18.7841 0 17.3079 0C14.4773 0 12.1808 2.35494 12.1808 5.25912C12.1808 5.67142 12.2249 6.07169 12.3129 6.45691C8.05012 6.23721 4.27158 4.1456 1.74033 0.960032C1.29864 1.7395 1.04624 2.64386 1.04624 3.6069C1.04624 5.43066 1.95164 7.04075 3.32805 7.98423C2.4887 7.95865 1.6963 7.7194 1.00369 7.32816V7.39286C1.00369 9.94191 2.77191 12.0681 5.11974 12.5497C4.68979 12.673 4.23637 12.7347 3.76827 12.7347C3.43811 12.7347 3.11528 12.7031 2.80272 12.6414C3.45571 14.73 5.34865 16.2514 7.59376 16.292C5.83875 17.7034 3.62593 18.5446 1.2238 18.5446C0.809997 18.5446 0.400598 18.5205 0 18.4724C2.27006 19.9621 4.96713 20.8333 7.8623 20.8333C17.2976 20.8333 22.4555 12.8205 22.4555 5.87005C22.4555 5.64133 22.4511 5.4126 22.4423 5.18839C23.4446 4.44655 24.3147 3.52113 25 2.4663Z" fill="#00AAEC"/>
</g>
</svg>
