<svg preserveAspectRatio="none" width="100%" height="100%" overflow="visible" style="display: block;" viewBox="0 0 70 70" fill="none" xmlns="http://www.w3.org/2000/svg">
<g id="duo">
<mask id="mask0_10362_213" style="mask-type:alpha" maskUnits="userSpaceOnUse" x="0" y="0" width="70" height="70">
<rect id="Bounding box" width="70" height="70" fill="var(--fill-0, #D9D9D9)"/>
</mask>
<g mask="url(#mask0_10362_213)">
<path id="duo_2" d="M35 64.1667C30.9653 64.1667 27.1736 63.401 23.625 61.8698C20.0764 60.3385 16.9896 58.2604 14.3646 55.6354C11.7396 53.0104 9.66146 49.9236 8.13021 46.375C6.59896 42.8264 5.83333 39.0347 5.83333 35C5.83333 30.9653 6.59896 27.1736 8.13021 23.625C9.66146 20.0764 11.7396 16.9896 14.3646 14.3646C16.9896 11.7396 20.0764 9.66146 23.625 8.13021C27.1736 6.59896 30.9653 5.83333 35 5.83333H58.3333C59.9375 5.83333 61.3108 6.40451 62.4531 7.54688C63.5955 8.68924 64.1667 10.0625 64.1667 11.6667V35C64.1667 39.0347 63.401 42.8264 61.8698 46.375C60.3385 49.9236 58.2604 53.0104 55.6354 55.6354C53.0104 58.2604 49.9236 60.3385 46.375 61.8698C42.8264 63.401 39.0347 64.1667 35 64.1667ZM35 58.3333C41.5139 58.3333 47.0312 56.0729 51.5521 51.5521C56.0729 47.0312 58.3333 41.5139 58.3333 35V11.6667H35C28.4861 11.6667 22.9688 13.9271 18.4479 18.4479C13.9271 22.9688 11.6667 28.4861 11.6667 35C11.6667 41.5139 13.9271 47.0312 18.4479 51.5521C22.9688 56.0729 28.4861 58.3333 35 58.3333ZM20.4167 43.75H40.8333V37.9167L49.5833 43.75V26.25L40.8333 32.0833V26.25H20.4167V43.75Z" fill="var(--fill-0, #F8F8F8)"/>
</g>
</g>
</svg>
