<svg viewBox="0 0 70 70" fill="none" xmlns="http://www.w3.org/2000/svg">
<path id="volunteer_activism_2" d="M20.4167 58.4062V32.0833H25.0833C25.4236 32.0833 25.7639 32.1198 26.1042 32.1927C26.4444 32.2656 26.7847 32.3507 27.125 32.4479L47.3229 39.9583C48.0035 40.2014 48.5503 40.6389 48.9635 41.2708C49.3767 41.9028 49.5833 42.559 49.5833 43.2396C49.5833 44.2604 49.2309 45.0868 48.526 45.7187C47.8212 46.3507 47.0069 46.6667 46.0833 46.6667H38.4271C38.184 46.6667 38.0017 46.6545 37.8802 46.6302C37.7587 46.6059 37.6007 46.5451 37.4063 46.4479L32.7396 44.625L31.7917 47.4687L37.4063 49.4375C37.5035 49.4861 37.6493 49.5226 37.8438 49.5469C38.0382 49.5712 38.2083 49.5833 38.3542 49.5833H58.3333C59.8889 49.5833 61.25 50.1424 62.4167 51.2604C63.5833 52.3785 64.1667 53.7639 64.1667 55.4167L40.9063 64.1667L20.4167 58.4062ZM2.91667 64.1667V32.0833H14.5833V64.1667H2.91667ZM46.6667 37.9167L34.5625 26.1042C33.0556 24.6458 31.7795 23.0295 30.7344 21.2552C29.6892 19.4809 29.1667 17.5486 29.1667 15.4583C29.1667 12.7847 30.1024 10.5122 31.974 8.64063C33.8455 6.7691 36.1181 5.83333 38.7917 5.83333C40.3472 5.83333 41.8056 6.16146 43.1667 6.81771C44.5278 7.47396 45.6944 8.36111 46.6667 9.47917C47.6389 8.36111 48.8056 7.47396 50.1667 6.81771C51.5278 6.16146 52.9861 5.83333 54.5417 5.83333C57.2153 5.83333 59.4879 6.7691 61.3594 8.64063C63.2309 10.5122 64.1667 12.7847 64.1667 15.4583C64.1667 17.5486 63.6563 19.4809 62.6354 21.2552C61.6146 23.0295 60.3507 24.6458 58.8438 26.1042L46.6667 37.9167Z" fill="#5D5D5D"/>
</svg>
