<svg preserveAspectRatio="none" width="100%" height="100%" overflow="visible" style="display: block;" viewBox="0 0 70 70" fill="none" xmlns="http://www.w3.org/2000/svg">
<g id="vpn_lock">
<mask id="mask0_10362_205" style="mask-type:alpha" maskUnits="userSpaceOnUse" x="0" y="0" width="70" height="70">
<rect id="Bounding box" width="70" height="70" fill="var(--fill-0, #D9D9D9)"/>
</mask>
<g mask="url(#mask0_10362_205)">
<path id="vpn_lock_2" d="M35 64.1667C31.0139 64.1667 27.2465 63.401 23.6979 61.8698C20.1493 60.3385 17.0503 58.2483 14.401 55.599C11.7517 52.9497 9.66146 49.8507 8.13021 46.3021C6.59896 42.7535 5.83333 38.9861 5.83333 35C5.83333 30.9653 6.59896 27.1858 8.13021 23.6615C9.66146 20.1372 11.7517 17.0503 14.401 14.401C17.0503 11.7517 20.1493 9.66146 23.6979 8.13021C27.2465 6.59896 31.0139 5.83333 35 5.83333C36.5556 5.83333 38.0503 5.94271 39.4844 6.16146C40.9184 6.38021 42.3403 6.70833 43.75 7.14583V14.5833C43.75 16.1875 43.1788 17.5608 42.0365 18.7031C40.8941 19.8455 39.5208 20.4167 37.9167 20.4167H32.0833V26.25C32.0833 27.0764 31.8038 27.7691 31.2448 28.3281C30.6858 28.8872 29.9931 29.1667 29.1667 29.1667H23.3333V35H40.8333C41.6597 35 42.3524 35.2795 42.9115 35.8385C43.4705 36.3976 43.75 37.0903 43.75 37.9167V46.6667H46.6667C47.9792 46.6667 49.1337 47.0556 50.1302 47.8333C51.1267 48.6111 51.8194 49.5833 52.2083 50.75C54.1042 48.6111 55.599 46.217 56.6927 43.5677C57.7865 40.9184 58.3333 38.0625 58.3333 35C58.3333 34.4653 58.309 33.9792 58.2604 33.5417C58.2118 33.1042 58.1389 32.6181 58.0417 32.0833H64.0208C64.1181 32.6181 64.1667 33.1042 64.1667 33.5417V35C64.1667 38.9861 63.401 42.7535 61.8698 46.3021C60.3385 49.8507 58.2483 52.9497 55.599 55.599C52.9497 58.2483 49.8628 60.3385 46.3385 61.8698C42.8142 63.401 39.0347 64.1667 35 64.1667ZM32.0833 58.1875V52.5C30.4792 52.5 29.1059 51.9288 27.9635 50.7865C26.8212 49.6441 26.25 48.2708 26.25 46.6667V43.75L12.25 29.75C12.1042 30.625 11.9705 31.5 11.849 32.375C11.7274 33.25 11.6667 34.125 11.6667 35C11.6667 41.0278 13.6233 46.217 17.5365 50.5677C21.4497 54.9184 26.2986 57.4583 32.0833 58.1875ZM52.5 26.25C51.6736 26.25 50.9809 25.9705 50.4219 25.4115C49.8628 24.8524 49.5833 24.1597 49.5833 23.3333V14.5833C49.5833 13.7569 49.8628 13.0642 50.4219 12.5052C50.9809 11.9462 51.6736 11.6667 52.5 11.6667V8.75C52.5 7.14583 53.0712 5.77257 54.2135 4.63021C55.3559 3.48785 56.7292 2.91667 58.3333 2.91667C59.9375 2.91667 61.3108 3.48785 62.4531 4.63021C63.5955 5.77257 64.1667 7.14583 64.1667 8.75V11.6667C64.9931 11.6667 65.6858 11.9462 66.2448 12.5052C66.8038 13.0642 67.0833 13.7569 67.0833 14.5833V23.3333C67.0833 24.1597 66.8038 24.8524 66.2448 25.4115C65.6858 25.9705 64.9931 26.25 64.1667 26.25H52.5ZM55.4167 11.6667H61.25V8.75C61.25 7.92361 60.9705 7.2309 60.4115 6.67188C59.8524 6.11285 59.1597 5.83333 58.3333 5.83333C57.5069 5.83333 56.8142 6.11285 56.2552 6.67188C55.6962 7.2309 55.4167 7.92361 55.4167 8.75V11.6667Z" fill="var(--fill-0, #F8F8F8)"/>
</g>
</g>
</svg>
