<svg preserveAspectRatio="none" width="100%" height="100%" overflow="visible" style="display: block;" viewBox="0 0 44 44" fill="none" xmlns="http://www.w3.org/2000/svg">
<g id="Group 29">
<circle id="Ellipse 2" cx="22" cy="22" r="22" fill="var(--fill-0, #15191C)"/>
<g id="notifications">
<mask id="mask0_10433_261" style="mask-type:alpha" maskUnits="userSpaceOnUse" x="10" y="10" width="24" height="24">
<rect id="Bounding box" x="10" y="10" width="24" height="24" fill="var(--fill-0, #D9D9D9)"/>
</mask>
<g mask="url(#mask0_10433_261)">
<path id="notifications_2" d="M14 29V27H16V20C16 18.6167 16.4167 17.3875 17.25 16.3125C18.0833 15.2375 19.1667 14.5333 20.5 14.2V13.5C20.5 13.0833 20.6458 12.7292 20.9375 12.4375C21.2292 12.1458 21.5833 12 22 12C22.4167 12 22.7708 12.1458 23.0625 12.4375C23.3542 12.7292 23.5 13.0833 23.5 13.5V14.2C24.8333 14.5333 25.9167 15.2375 26.75 16.3125C27.5833 17.3875 28 18.6167 28 20V27H30V29H14ZM22 32C21.45 32 20.9792 31.8042 20.5875 31.4125C20.1958 31.0208 20 30.55 20 30H24C24 30.55 23.8042 31.0208 23.4125 31.4125C23.0208 31.8042 22.55 32 22 32ZM18 27H26V20C26 18.9 25.6083 17.9583 24.825 17.175C24.0417 16.3917 23.1 16 22 16C20.9 16 19.9583 16.3917 19.175 17.175C18.3917 17.9583 18 18.9 18 20V27Z" fill="var(--fill-0, #F8F8F8)"/>
</g>
</g>
</g>
</svg>
