<svg xmlns="http://www.w3.org/2000/svg" width="20" height="20" viewBox="0 0 20 20" fill="none">
  <path d="M10 12.5C11.3807 12.5 12.5 11.3807 12.5 10C12.5 8.61929 11.3807 7.5 10 7.5C8.61929 7.5 10 8.61929 10 10C10 11.3807 8.61929 12.5 10 12.5Z" fill="white"/>
  <path d="M7.5 2.5L6.1625 4.16667H3.33333C2.41667 4.16667 1.66667 4.91667 1.66667 5.83333V14.1667C1.66667 15.0833 2.41667 15.8333 3.33333 15.8333H16.6667C17.5833 15.8333 18.3333 15.0833 18.3333 14.1667V5.83333C18.3333 4.91667 17.5833 4.16667 16.6667 4.16667H13.8375L12.5 2.5H7.5ZM10 13.75C7.93333 13.75 6.25 12.0667 6.25 10C6.25 7.93333 7.93333 6.25 10 6.25C12.0667 6.25 13.75 7.93333 13.75 10C13.75 12.0667 12.0667 13.75 10 13.75Z" fill="white"/>
</svg>
