<svg preserveAspectRatio="none" width="100%" height="100%" overflow="visible" style="display: block;" viewBox="0 0 20 20" fill="none" xmlns="http://www.w3.org/2000/svg">
<g id="chat">
<mask id="mask0_10346_145" style="mask-type:alpha" maskUnits="userSpaceOnUse" x="0" y="0" width="20" height="20">
<rect id="Bounding box" width="20" height="20" fill="#D9D9D9"/>
</mask>
<g mask="url(#mask0_10346_145)">
<path id="chat_2" d="M5.2 11.6H11.6V10H5.2V11.6ZM5.2 9.2H14.8V7.6H5.2V9.2ZM5.2 6.8H14.8V5.2H5.2V6.8ZM2 18V3.6C2 3.16 2.15667 2.78333 2.47 2.47C2.78333 2.15667 3.16 2 3.6 2H16.4C16.84 2 17.2167 2.15667 17.53 2.47C17.8433 2.78333 18 3.16 18 3.6V13.2C18 13.64 17.8433 14.0167 17.53 14.33C17.2167 14.6433 16.84 14.8 16.4 14.8H5.2L2 18ZM4.52 13.2H16.4V3.6H3.6V14.1L4.52 13.2Z" fill="#5D5D5D"/>
</g>
</g>
</svg>
