<svg viewBox="0 0 20 20" fill="none" xmlns="http://www.w3.org/2000/svg">
<path id="favorite_2" d="M10 17.5L8.79167 16.4167C7.38889 15.1528 6.22917 14.0625 5.3125 13.1459C4.39583 12.2292 3.66667 11.4063 3.125 10.6771C2.58333 9.94794 2.20486 9.2778 1.98958 8.66669C1.77431 8.05558 1.66667 7.43058 1.66667 6.79169C1.66667 5.48613 2.10417 4.39585 2.97917 3.52085C3.85417 2.64585 4.94444 2.20835 6.25 2.20835C6.97222 2.20835 7.65972 2.36113 8.3125 2.66669C8.96528 2.97224 9.52778 3.4028 10 3.95835C10.4722 3.4028 11.0347 2.97224 11.6875 2.66669C12.3403 2.36113 13.0278 2.20835 13.75 2.20835C15.0556 2.20835 16.1458 2.64585 17.0208 3.52085C17.8958 4.39585 18.3333 5.48613 18.3333 6.79169C18.3333 7.43058 18.2257 8.05558 18.0104 8.66669C17.7951 9.2778 17.4167 9.94794 16.875 10.6771C16.3333 11.4063 15.6042 12.2292 14.6875 13.1459C13.7708 14.0625 12.6111 15.1528 11.2083 16.4167L10 17.5ZM10 15.25C11.3333 14.0556 12.4306 13.0313 13.2917 12.1771C14.1528 11.3229 14.8333 10.5799 15.3333 9.94794C15.8333 9.31599 16.1806 8.75349 16.375 8.26044C16.5694 7.76738 16.6667 7.2778 16.6667 6.79169C16.6667 5.95835 16.3889 5.26391 15.8333 4.70835C15.2778 4.1528 14.5833 3.87502 13.75 3.87502C13.0972 3.87502 12.4931 4.05905 11.9375 4.4271C11.3819 4.79516 11 5.26391 10.7917 5.83335H9.20833C9 5.26391 8.61806 4.79516 8.0625 4.4271C7.50694 4.05905 6.90278 3.87502 6.25 3.87502C5.41667 3.87502 4.72222 4.1528 4.16667 4.70835C3.61111 5.26391 3.33333 5.95835 3.33333 6.79169C3.33333 7.2778 3.43056 7.76738 3.625 8.26044C3.81944 8.75349 4.16667 9.31599 4.66667 9.94794C5.16667 10.5799 5.84722 11.3229 6.70833 12.1771C7.56944 13.0313 8.66667 14.0556 10 15.25Z" fill="#5D5D5D"/>
</svg>
