<svg preserveAspectRatio="none" width="100%" height="100%" overflow="visible" style="display: block;" viewBox="0 0 44 44" fill="none" xmlns="http://www.w3.org/2000/svg">
<g id="Group 28">
<circle id="Ellipse 3" cx="22" cy="22" r="22" fill="var(--fill-0, #15191C)"/>
<g id="chat">
<mask id="mask0_10433_251" style="mask-type:alpha" maskUnits="userSpaceOnUse" x="10" y="10" width="24" height="24">
<rect id="Bounding box" x="10" y="10" width="24" height="24" fill="var(--fill-0, #D9D9D9)"/>
</mask>
<g mask="url(#mask0_10433_251)">
<path id="chat_2" d="M16 24H24V22H16V24ZM16 21H28V19H16V21ZM16 18H28V16H16V18ZM12 32V14C12 13.45 12.1958 12.9792 12.5875 12.5875C12.9792 12.1958 13.45 12 14 12H30C30.55 12 31.0208 12.1958 31.4125 12.5875C31.8042 12.9792 32 13.45 32 14V26C32 26.55 31.8042 27.0208 31.4125 27.4125C31.0208 27.8042 30.55 28 30 28H16L12 32ZM15.15 26H30V14H14V27.125L15.15 26Z" fill="var(--fill-0, #F8F8F8)"/>
</g>
</g>
</g>
</svg>
