<svg preserveAspectRatio="none" width="100%" height="100%" overflow="visible" style="display: block;" viewBox="0 0 20 20" fill="none" xmlns="http://www.w3.org/2000/svg">
<g id="mode_comment">
<mask id="mask0_10346_27" style="mask-type:alpha" maskUnits="userSpaceOnUse" x="0" y="0" width="20" height="20">
<rect id="Bounding box" width="20" height="20" fill="var(--fill-0, #D9D9D9)"/>
</mask>
<g mask="url(#mask0_10346_27)">
<path id="mode_comment_2" d="M18.3333 18.3333L15 15H3.33333C2.875 15 2.48264 14.8368 2.15625 14.5104C1.82986 14.184 1.66667 13.7917 1.66667 13.3333V3.33333C1.66667 2.875 1.82986 2.48264 2.15625 2.15625C2.48264 1.82986 2.875 1.66667 3.33333 1.66667H16.6667C17.125 1.66667 17.5174 1.82986 17.8437 2.15625C18.1701 2.48264 18.3333 2.875 18.3333 3.33333V18.3333ZM3.33333 13.3333H15.7083L16.6667 14.2708V3.33333H3.33333V13.3333Z" fill="var(--fill-0, #F8F8F8)"/>
</g>
</g>
</svg>
