<svg xmlns="http://www.w3.org/2000/svg" width="15" height="15" viewBox="0 0 15 15" fill="none">
  <path d="M11.25 5.625H10.625V4.375C10.625 2.65 9.225 1.25 7.5 1.25C5.775 1.25 4.375 2.65 4.375 4.375V5.625H3.75C3.0625 5.625 2.5 6.1875 2.5 6.875V12.5C2.5 13.1875 3.0625 13.75 3.75 13.75H11.25C11.9375 13.75 12.5 13.1875 12.5 12.5V6.875C12.5 6.1875 11.9375 5.625 11.25 5.625ZM7.5 10.625C6.8125 10.625 6.25 10.0625 6.25 9.375C6.25 8.6875 6.8125 8.125 7.5 8.125C8.1875 8.125 8.75 8.6875 8.75 9.375C8.75 10.0625 8.1875 10.625 7.5 10.625ZM9.4375 5.625H5.5625V4.375C5.5625 3.30625 6.43125 2.4375 7.5 2.4375C8.56875 2.4375 9.4375 3.30625 9.4375 4.375V5.625Z" fill="white"/>
</svg>
