<svg preserveAspectRatio="none" width="100%" height="100%" overflow="visible" style="display: block;" viewBox="0 0 20 20" fill="none" xmlns="http://www.w3.org/2000/svg">
<g id="person_heart">
<mask id="mask0_10433_257" style="mask-type:alpha" maskUnits="userSpaceOnUse" x="0" y="0" width="20" height="20">
<rect id="Bounding box" width="20" height="20" fill="var(--fill-0, #D9D9D9)"/>
</mask>
<g mask="url(#mask0_10433_257)">
<path id="person_heart_2" d="M3.33333 16.6667V14.3333C3.33333 13.8611 3.45486 13.4271 3.69792 13.0312C3.94097 12.6354 4.26389 12.3333 4.66667 12.125C5.52778 11.6944 6.40278 11.3715 7.29167 11.1562C8.18056 10.941 9.08333 10.8333 10 10.8333H10.2917C10.1389 11.0833 10.0243 11.3507 9.94792 11.6354C9.87153 11.9201 9.83333 12.2083 9.83333 12.5C9.08333 12.5139 8.33681 12.6146 7.59375 12.8021C6.85069 12.9896 6.125 13.2639 5.41667 13.625C5.29167 13.6944 5.19097 13.7917 5.11458 13.9167C5.03819 14.0417 5 14.1806 5 14.3333V15H10.8958L12.5625 16.6667H3.33333ZM10 10C9.08333 10 8.29861 9.67361 7.64583 9.02083C6.99306 8.36806 6.66667 7.58333 6.66667 6.66667C6.66667 5.75 6.99306 4.96528 7.64583 4.3125C8.29861 3.65972 9.08333 3.33333 10 3.33333C10.9167 3.33333 11.7014 3.65972 12.3542 4.3125C13.0069 4.96528 13.3333 5.75 13.3333 6.66667C13.3333 7.58333 13.0069 8.36806 12.3542 9.02083C11.7014 9.67361 10.9167 10 10 10ZM10 8.33333C10.4583 8.33333 10.8507 8.17014 11.1771 7.84375C11.5035 7.51736 11.6667 7.125 11.6667 6.66667C11.6667 6.20833 11.5035 5.81597 11.1771 5.48958C10.8507 5.16319 10.4583 5 10 5C9.54167 5 9.14931 5.16319 8.82292 5.48958C8.49653 5.81597 8.33333 6.20833 8.33333 6.66667C8.33333 7.125 8.49653 7.51736 8.82292 7.84375C9.14931 8.17014 9.54167 8.33333 10 8.33333ZM14.9167 16.6667L12 13.75C11.8194 13.5694 11.691 13.375 11.6146 13.1667C11.5382 12.9583 11.5 12.75 11.5 12.5417C11.5 12.0972 11.6597 11.7014 11.9792 11.3542C12.2986 11.0069 12.7083 10.8333 13.2083 10.8333C13.5972 10.8333 13.9028 10.9236 14.125 11.1042C14.3472 11.2847 14.6111 11.5278 14.9167 11.8333C15.1944 11.5556 15.4479 11.3194 15.6771 11.125C15.9062 10.9306 16.2222 10.8333 16.625 10.8333C17.1389 10.8333 17.5521 11.0104 17.8646 11.3646C18.1771 11.7187 18.3333 12.1181 18.3333 12.5625C18.3333 12.7708 18.2917 12.9792 18.2083 13.1875C18.125 13.3958 18 13.5833 17.8333 13.75L14.9167 16.6667Z" fill="var(--fill-0, #5D5D5D)"/>
</g>
</g>
</svg>
