<svg viewBox="0 0 20 20" fill="none" xmlns="http://www.w3.org/2000/svg">
<path id="settings_2" d="M7.7085 18.3333L7.37516 15.6667C7.19461 15.5972 7.02447 15.5139 6.86475 15.4167C6.70502 15.3194 6.54877 15.2153 6.396 15.1042L3.91683 16.1458L1.62516 12.1875L3.771 10.5625C3.75711 10.4653 3.75016 10.3715 3.75016 10.2813V9.71875C3.75016 9.62847 3.75711 9.53472 3.771 9.4375L1.62516 7.8125L3.91683 3.85417L6.396 4.89583C6.54877 4.78472 6.7085 4.68056 6.87516 4.58333C7.04183 4.48611 7.2085 4.40278 7.37516 4.33333L7.7085 1.66667H12.2918L12.6252 4.33333C12.8057 4.40278 12.9759 4.48611 13.1356 4.58333C13.2953 4.68056 13.4516 4.78472 13.6043 4.89583L16.0835 3.85417L18.3752 7.8125L16.2293 9.4375C16.2432 9.53472 16.2502 9.62847 16.2502 9.71875V10.2813C16.2502 10.3715 16.2363 10.4653 16.2085 10.5625L18.3543 12.1875L16.0627 16.1458L13.6043 15.1042C13.4516 15.2153 13.2918 15.3194 13.1252 15.4167C12.9585 15.5139 12.7918 15.5972 12.6252 15.6667L12.2918 18.3333H7.7085ZM9.16683 16.6667H10.8127L11.1043 14.4583C11.5349 14.3472 11.9342 14.184 12.3022 13.9687C12.6703 13.7535 13.0071 13.4931 13.3127 13.1875L15.3752 14.0417L16.1877 12.625L14.396 11.2708C14.4654 11.0764 14.5141 10.8715 14.5418 10.6563C14.5696 10.441 14.5835 10.2222 14.5835 10C14.5835 9.77778 14.5696 9.55903 14.5418 9.34375C14.5141 9.12847 14.4654 8.92361 14.396 8.72917L16.1877 7.375L15.3752 5.95833L13.3127 6.83333C13.0071 6.51389 12.6703 6.24653 12.3022 6.03125C11.9342 5.81597 11.5349 5.65278 11.1043 5.54167L10.8335 3.33333H9.18766L8.896 5.54167C8.46544 5.65278 8.06613 5.81597 7.69808 6.03125C7.33002 6.24653 6.99322 6.50694 6.68766 6.8125L4.62516 5.95833L3.81266 7.375L5.60433 8.70833C5.53488 8.91667 5.48627 9.125 5.4585 9.33333C5.43072 9.54167 5.41683 9.76389 5.41683 10C5.41683 10.2222 5.43072 10.4375 5.4585 10.6458C5.48627 10.8542 5.53488 11.0625 5.60433 11.2708L3.81266 12.625L4.62516 14.0417L6.68766 13.1667C6.99322 13.4861 7.33002 13.7535 7.69808 13.9687C8.06613 14.184 8.46544 14.3472 8.896 14.4583L9.16683 16.6667ZM10.0418 12.9167C10.8474 12.9167 11.5349 12.6319 12.1043 12.0625C12.6738 11.4931 12.9585 10.8056 12.9585 10C12.9585 9.19444 12.6738 8.50694 12.1043 7.9375C11.5349 7.36806 10.8474 7.08333 10.0418 7.08333C9.22239 7.08333 8.53141 7.36806 7.96891 7.9375C7.40641 8.50694 7.12516 9.19444 7.12516 10C7.12516 10.8056 7.40641 11.4931 7.96891 12.0625C8.53141 12.6319 9.22239 12.9167 10.0418 12.9167Z" fill="#5D5D5D"/>
</svg>
