<svg preserveAspectRatio="none" width="100%" height="100%" overflow="visible" style="display: block;" viewBox="0 0 20 20" fill="none" xmlns="http://www.w3.org/2000/svg">
<g id="volunteer_activism">
<mask id="mask0_10346_21" style="mask-type:alpha" maskUnits="userSpaceOnUse" x="0" y="0" width="20" height="20">
<rect id="Bounding box" width="20" height="20" fill="#D9D9D9"/>
</mask>
<g mask="url(#mask0_10346_21)">
<path id="volunteer_activism_2" d="M13.3333 10.8333L9.875 7.45833C9.44444 7.04167 9.07986 6.57986 8.78125 6.07292C8.48264 5.56597 8.33333 5.01389 8.33333 4.41667C8.33333 3.65278 8.60069 3.00347 9.13542 2.46875C9.67014 1.93403 10.3194 1.66667 11.0833 1.66667C11.5278 1.66667 11.9444 1.76042 12.3333 1.94792C12.7222 2.13542 13.0556 2.38889 13.3333 2.70833C13.6111 2.38889 13.9444 2.13542 14.3333 1.94792C14.7222 1.76042 15.1389 1.66667 15.5833 1.66667C16.3472 1.66667 16.9965 1.93403 17.5312 2.46875C18.066 3.00347 18.3333 3.65278 18.3333 4.41667C18.3333 5.01389 18.1875 5.56597 17.8958 6.07292C17.6042 6.57986 17.2431 7.04167 16.8125 7.45833L13.3333 10.8333ZM13.3333 8.5L15.6042 6.27083C15.8681 6.00694 16.1111 5.72569 16.3333 5.42708C16.5556 5.12847 16.6667 4.79167 16.6667 4.41667C16.6667 4.11111 16.5625 3.85417 16.3542 3.64583C16.1458 3.4375 15.8889 3.33333 15.5833 3.33333C15.3889 3.33333 15.2049 3.37153 15.0312 3.44792C14.8576 3.52431 14.7083 3.63889 14.5833 3.79167L13.3333 5.29167L12.0833 3.79167C11.9583 3.63889 11.809 3.52431 11.6354 3.44792C11.4618 3.37153 11.2778 3.33333 11.0833 3.33333C10.7778 3.33333 10.5208 3.4375 10.3125 3.64583C10.1042 3.85417 10 4.11111 10 4.41667C10 4.79167 10.1111 5.12847 10.3333 5.42708C10.5556 5.72569 10.7986 6.00694 11.0625 6.27083L13.3333 8.5ZM5.83333 15.4167L11.625 17L16.5833 15.4583C16.5139 15.3333 16.4132 15.2257 16.2812 15.1354C16.1493 15.0451 16 15 15.8333 15H11.625C11.25 15 10.9514 14.9861 10.7292 14.9583C10.5069 14.9306 10.2778 14.875 10.0417 14.7917L8.10417 14.1458L8.5625 12.5208L10.25 13.0833C10.4861 13.1528 10.7639 13.2083 11.0833 13.25C11.4028 13.2917 11.875 13.3194 12.5 13.3333C12.5 13.1806 12.4549 13.0347 12.3646 12.8958C12.2743 12.7569 12.1667 12.6667 12.0417 12.625L7.16667 10.8333H5.83333V15.4167ZM0.833333 18.3333V9.16667H7.16667C7.26389 9.16667 7.36111 9.17708 7.45833 9.19792C7.55556 9.21875 7.64583 9.24306 7.72917 9.27083L12.625 11.0833C13.0833 11.25 13.4549 11.5417 13.7396 11.9583C14.0243 12.375 14.1667 12.8333 14.1667 13.3333H15.8333C16.5278 13.3333 17.1181 13.5625 17.6042 14.0208C18.0903 14.4792 18.3333 15.0833 18.3333 15.8333V16.6667L11.6667 18.75L5.83333 17.125V18.3333H0.833333ZM2.5 16.6667H4.16667V10.8333H2.5V16.6667Z" fill="#5D5D5D"/>
</g>
</g>
</svg>
