<svg width="70" height="70" viewBox="0 0 70 70" fill="none" xmlns="http://www.w3.org/2000/svg">
<mask id="mask0" style="mask-type:alpha" maskUnits="userSpaceOnUse" x="0" y="0" width="70" height="70">
<rect width="70" height="70" fill="#D9D9D9"/>
</mask>
<g mask="url(#mask0)">
<path d="M17.5065 58.3268C14.2982 58.3268 11.5516 57.1845 9.26693 54.8998C6.9822 52.615 5.83984 49.8685 5.83984 46.6602V23.3268C5.83984 20.1185 6.9822 17.372 9.26693 15.0872C11.5516 12.8025 14.2982 11.6602 17.5065 11.6602H52.5065C55.7148 11.6602 58.4614 12.8025 60.7461 15.0872C63.0308 17.372 64.1732 20.1185 64.1732 23.3268V46.6602C64.1732 49.8685 63.0308 52.615 60.7461 54.8998C58.4614 57.1845 55.7148 58.3268 52.5065 58.3268H17.5065ZM17.5065 23.3268H52.5065C53.5759 23.3268 54.5968 23.4484 55.569 23.6914C56.5412 23.9345 57.4648 24.3234 58.3398 24.8581V23.3268C58.3398 21.7227 57.7686 20.3494 56.6263 19.207C55.4839 18.0647 54.1107 17.4935 52.5065 17.4935H17.5065C15.9023 17.4935 14.5291 18.0647 13.3867 19.207C12.2444 20.3494 11.6732 21.7227 11.6732 23.3268V24.8581C12.5482 24.3234 13.4718 23.9345 14.444 23.6914C15.4162 23.4484 16.4371 23.3268 17.5065 23.3268ZM12.1107 32.806L44.5586 40.681C44.9961 40.7782 45.4336 40.7782 45.8711 40.681C46.3086 40.5838 46.7218 40.3893 47.1107 40.0977L57.2461 31.6393C56.7114 30.9102 56.0308 30.3147 55.2044 29.8529C54.378 29.3911 53.4787 29.1602 52.5065 29.1602H17.5065C16.2426 29.1602 15.1367 29.4883 14.1888 30.1445C13.2409 30.8008 12.5482 31.6879 12.1107 32.806Z" fill="#F8F8F8"/>
</g>
</svg>
