<svg preserveAspectRatio="none" width="100%" height="100%" overflow="visible" style="display: block;" viewBox="0 0 20 20" fill="none" xmlns="http://www.w3.org/2000/svg">
<g id="workspace_premium">
<mask id="mask0_10346_91" style="mask-type:alpha" maskUnits="userSpaceOnUse" x="0" y="0" width="20" height="20">
<rect id="Bounding box" width="20" height="20" fill="var(--fill-0, #D9D9D9)"/>
</mask>
<g mask="url(#mask0_10346_91)">
<path id="workspace_premium_2" d="M8.0625 11.4167L8.79167 9.04167L6.875 7.5H9.25L10 5.16667L10.75 7.5H13.125L11.1875 9.04167L11.9167 11.4167L10 9.9375L8.0625 11.4167ZM5 19.1667V12.7292C4.47222 12.1458 4.0625 11.4792 3.77083 10.7292C3.47917 9.97917 3.33333 9.18056 3.33333 8.33333C3.33333 6.47222 3.97917 4.89583 5.27083 3.60417C6.5625 2.3125 8.13889 1.66667 10 1.66667C11.8611 1.66667 13.4375 2.3125 14.7292 3.60417C16.0208 4.89583 16.6667 6.47222 16.6667 8.33333C16.6667 9.18056 16.5208 9.97917 16.2292 10.7292C15.9375 11.4792 15.5278 12.1458 15 12.7292V19.1667L10 17.5L5 19.1667ZM10 13.3333C11.3889 13.3333 12.5694 12.8472 13.5417 11.875C14.5139 10.9028 15 9.72222 15 8.33333C15 6.94444 14.5139 5.76389 13.5417 4.79167C12.5694 3.81944 11.3889 3.33333 10 3.33333C8.61111 3.33333 7.43056 3.81944 6.45833 4.79167C5.48611 5.76389 5 6.94444 5 8.33333C5 9.72222 5.48611 10.9028 6.45833 11.875C7.43056 12.8472 8.61111 13.3333 10 13.3333ZM6.66667 16.6875L10 15.8333L13.3333 16.6875V14.1042C12.8472 14.3819 12.3229 14.6007 11.7604 14.7604C11.1979 14.9201 10.6111 15 10 15C9.38889 15 8.80208 14.9201 8.23958 14.7604C7.67708 14.6007 7.15278 14.3819 6.66667 14.1042V16.6875Z" fill="var(--fill-0, #5D5D5D)"/>
</g>
</g>
</svg>
