<svg preserveAspectRatio="none" width="100%" height="100%" overflow="visible" style="display: block;" viewBox="0 0 20 20" fill="none" xmlns="http://www.w3.org/2000/svg">
<g id="18_up_rating">
<mask id="mask0_10393_666" style="mask-type:alpha" maskUnits="userSpaceOnUse" x="0" y="0" width="20" height="20">
<rect id="Bounding box" width="20" height="20" fill="var(--fill-0, #D9D9D9)"/>
</mask>
<g mask="url(#mask0_10393_666)">
<path id="18_up_rating_2" d="M7.08333 12.5H8.33333V7.5H5.83333V8.75H7.08333V12.5ZM10.4167 12.5H12.5C12.7361 12.5 12.934 12.4201 13.0938 12.2604C13.2535 12.1007 13.3333 11.9028 13.3333 11.6667V8.33333C13.3333 8.09722 13.2535 7.89931 13.0938 7.73958C12.934 7.57986 12.7361 7.5 12.5 7.5H10.4167C10.1806 7.5 9.98264 7.57986 9.82292 7.73958C9.66319 7.89931 9.58333 8.09722 9.58333 8.33333V11.6667C9.58333 11.9028 9.66319 12.1007 9.82292 12.2604C9.98264 12.4201 10.1806 12.5 10.4167 12.5ZM10.8333 11.6667V10.4167H12.0833V11.6667H10.8333ZM10.8333 9.58333V8.33333H12.0833V9.58333H10.8333ZM4.16667 17.5C3.70833 17.5 3.31597 17.3368 2.98958 17.0104C2.66319 16.684 2.5 16.2917 2.5 15.8333V4.16667C2.5 3.70833 2.66319 3.31597 2.98958 2.98958C3.31597 2.66319 3.70833 2.5 4.16667 2.5H15.8333C16.2917 2.5 16.684 2.66319 17.0104 2.98958C17.3368 3.31597 17.5 3.70833 17.5 4.16667V15.8333C17.5 16.2917 17.3368 16.684 17.0104 17.0104C16.684 17.3368 16.2917 17.5 15.8333 17.5H4.16667ZM4.16667 15.8333H15.8333V4.16667H4.16667V15.8333Z" fill="var(--fill-0, #15191C)"/>
</g>
</g>
</svg>
