<svg preserveAspectRatio="none" width="100%" height="100%" overflow="visible" style="display: block;" viewBox="0 0 20 20" fill="none" xmlns="http://www.w3.org/2000/svg">
<g id="attach_money">
<mask id="mask0_10393_670" style="mask-type:alpha" maskUnits="userSpaceOnUse" x="0" y="0" width="20" height="20">
<rect id="Bounding box" width="20" height="20" fill="var(--fill-0, #D9D9D9)"/>
</mask>
<g mask="url(#mask0_10393_670)">
<path id="attach_money_2" d="M9.18685 17.5V15.7083C8.45074 15.5417 7.81532 15.2222 7.2806 14.75C6.74588 14.2778 6.35352 13.6111 6.10352 12.75L7.64518 12.125C7.85352 12.7917 8.16254 13.2986 8.57227 13.6458C8.98199 13.9931 9.52018 14.1667 10.1868 14.1667C10.7563 14.1667 11.2389 14.0382 11.6348 13.7813C12.0306 13.5243 12.2285 13.125 12.2285 12.5833C12.2285 12.0972 12.0757 11.7118 11.7702 11.4271C11.4646 11.1424 10.7563 10.8194 9.64518 10.4583C8.45074 10.0833 7.63129 9.63542 7.18685 9.11458C6.7424 8.59375 6.52018 7.95833 6.52018 7.20833C6.52018 6.30556 6.81185 5.60417 7.39518 5.10417C7.97852 4.60417 8.57574 4.31944 9.18685 4.25V2.5H10.8535V4.25C11.548 4.36111 12.1209 4.61458 12.5723 5.01042C13.0237 5.40625 13.3535 5.88889 13.5618 6.45833L12.0202 7.125C11.8535 6.68056 11.6174 6.34722 11.3118 6.125C11.0063 5.90278 10.5896 5.79167 10.0618 5.79167C9.45074 5.79167 8.98546 5.92708 8.66602 6.19792C8.34657 6.46875 8.18685 6.80556 8.18685 7.20833C8.18685 7.66667 8.39518 8.02778 8.81185 8.29167C9.22852 8.55556 9.95074 8.83333 10.9785 9.125C11.9368 9.40278 12.6625 9.84375 13.1556 10.4479C13.6487 11.0521 13.8952 11.75 13.8952 12.5417C13.8952 13.5278 13.6035 14.2778 13.0202 14.7917C12.4368 15.3056 11.7146 15.625 10.8535 15.75V17.5H9.18685Z" fill="var(--fill-0, #15191C)"/>
</g>
</g>
</svg>
