<svg viewBox="0 0 20 20" fill="none" xmlns="http://www.w3.org/2000/svg">
<path id="comedy_mask_2" d="M10 14.1667C10.9167 14.1667 11.7014 13.8403 12.3542 13.1875C13.0069 12.5347 13.3333 11.75 13.3333 10.8333H6.66667C6.66667 11.75 6.99306 12.5347 7.64583 13.1875C8.29861 13.8403 9.08333 14.1667 10 14.1667ZM5.83333 7.5H9.16667C9.16667 7.04167 9.00347 6.64931 8.67708 6.32292C8.35069 5.99653 7.95833 5.83333 7.5 5.83333C7.04167 5.83333 6.64931 5.99653 6.32292 6.32292C5.99653 6.64931 5.83333 7.04167 5.83333 7.5ZM10.8333 7.5H14.1667C14.1667 7.04167 14.0035 6.64931 13.6771 6.32292C13.3507 5.99653 12.9583 5.83333 12.5 5.83333C12.0417 5.83333 11.6493 5.99653 11.3229 6.32292C10.9965 6.64931 10.8333 7.04167 10.8333 7.5ZM10 18.3333C8.95833 18.3333 7.98264 18.1354 7.07292 17.7396C6.16319 17.3437 5.37153 16.809 4.69792 16.1354C4.02431 15.4618 3.48958 14.6701 3.09375 13.7604C2.69792 12.8507 2.5 11.875 2.5 10.8333V1.66667H17.5V10.8333C17.5 11.875 17.3021 12.8507 16.9062 13.7604C16.5104 14.6701 15.9757 15.4618 15.3021 16.1354C14.6285 16.809 13.8368 17.3437 12.9271 17.7396C12.0174 18.1354 11.0417 18.3333 10 18.3333ZM10 16.6667C11.6111 16.6667 12.9861 16.0972 14.125 14.9583C15.2639 13.8194 15.8333 12.4444 15.8333 10.8333V3.33333H4.16667V10.8333C4.16667 12.4444 4.73611 13.8194 5.875 14.9583C7.01389 16.0972 8.38889 16.6667 10 16.6667Z" fill="#5D5D5D"/>
</svg>
