<svg preserveAspectRatio="none" width="100%" height="100%" overflow="visible" style="display: block;" viewBox="0 0 20 20" fill="none" xmlns="http://www.w3.org/2000/svg">
<g id="palette">
<mask id="mask0_10393_652" style="mask-type:alpha" maskUnits="userSpaceOnUse" x="0" y="0" width="20" height="20">
<rect id="Bounding box" width="20" height="20" fill="#D9D9D9"/>
</mask>
<g mask="url(#mask0_10393_652)">
<path id="palette_2" d="M10.0006 18.333C8.8617 18.333 7.78531 18.1143 6.77143 17.6768C5.75754 17.2393 4.87212 16.6421 4.11518 15.8851C3.35823 15.1282 2.76101 14.2428 2.32351 13.2289C1.88601 12.215 1.66726 11.1386 1.66726 9.9997C1.66726 8.84693 1.89295 7.76359 2.34434 6.7497C2.79573 5.73582 3.40684 4.85387 4.17768 4.10387C4.94851 3.35387 5.84781 2.76012 6.87559 2.32262C7.90337 1.88512 9.00059 1.66637 10.1673 1.66637C11.2784 1.66637 12.327 1.85734 13.3131 2.23929C14.2992 2.62123 15.1638 3.14901 15.9068 3.82262C16.6499 4.49623 17.2402 5.29484 17.6777 6.21845C18.1152 7.14207 18.3339 8.13859 18.3339 9.20804C18.3339 10.8053 17.8478 12.031 16.8756 12.8851C15.9034 13.7393 14.7228 14.1664 13.3339 14.1664H11.7923C11.6673 14.1664 11.5805 14.2011 11.5318 14.2705C11.4832 14.34 11.4589 14.4164 11.4589 14.4997C11.4589 14.6664 11.5631 14.906 11.7714 15.2185C11.9798 15.531 12.0839 15.8886 12.0839 16.2914C12.0839 16.9858 11.893 17.4997 11.511 17.833C11.1291 18.1664 10.6256 18.333 10.0006 18.333ZM5.41726 10.833C5.77837 10.833 6.07698 10.715 6.31309 10.4789C6.5492 10.2428 6.66726 9.94415 6.66726 9.58304C6.66726 9.22193 6.5492 8.92332 6.31309 8.6872C6.07698 8.45109 5.77837 8.33304 5.41726 8.33304C5.05615 8.33304 4.75754 8.45109 4.52143 8.6872C4.28531 8.92332 4.16726 9.22193 4.16726 9.58304C4.16726 9.94415 4.28531 10.2428 4.52143 10.4789C4.75754 10.715 5.05615 10.833 5.41726 10.833ZM7.91726 7.4997C8.27837 7.4997 8.57698 7.38165 8.81309 7.14554C9.0492 6.90943 9.16726 6.61082 9.16726 6.2497C9.16726 5.88859 9.0492 5.58998 8.81309 5.35387C8.57698 5.11776 8.27837 4.9997 7.91726 4.9997C7.55615 4.9997 7.25754 5.11776 7.02143 5.35387C6.78531 5.58998 6.66726 5.88859 6.66726 6.2497C6.66726 6.61082 6.78531 6.90943 7.02143 7.14554C7.25754 7.38165 7.55615 7.4997 7.91726 7.4997ZM12.0839 7.4997C12.445 7.4997 12.7436 7.38165 12.9798 7.14554C13.2159 6.90943 13.3339 6.61082 13.3339 6.2497C13.3339 5.88859 13.2159 5.58998 12.9798 5.35387C12.7436 5.11776 12.445 4.9997 12.0839 4.9997C11.7228 4.9997 11.4242 5.11776 11.1881 5.35387C10.952 5.58998 10.8339 5.88859 10.8339 6.2497C10.8339 6.61082 10.952 6.90943 11.1881 7.14554C11.4242 7.38165 11.7228 7.4997 12.0839 7.4997ZM14.5839 10.833C14.945 10.833 15.2436 10.715 15.4798 10.4789C15.7159 10.2428 15.8339 9.94415 15.8339 9.58304C15.8339 9.22193 15.7159 8.92332 15.4798 8.6872C15.2436 8.45109 14.945 8.33304 14.5839 8.33304C14.2228 8.33304 13.9242 8.45109 13.6881 8.6872C13.452 8.92332 13.3339 9.22193 13.3339 9.58304C13.3339 9.94415 13.452 10.2428 13.6881 10.4789C13.9242 10.715 14.2228 10.833 14.5839 10.833ZM10.0006 16.6664C10.1256 16.6664 10.2263 16.6316 10.3027 16.5622C10.3791 16.4928 10.4173 16.4025 10.4173 16.2914C10.4173 16.0969 10.3131 15.8678 10.1048 15.6039C9.89643 15.34 9.79226 14.9441 9.79226 14.4164C9.79226 13.833 9.99365 13.3678 10.3964 13.0205C10.7992 12.6733 11.2923 12.4997 11.8756 12.4997H13.3339C14.2506 12.4997 15.0353 12.2323 15.6881 11.6976C16.3409 11.1629 16.6673 10.333 16.6673 9.20804C16.6673 7.52748 16.0249 6.12818 14.7402 5.01012C13.4555 3.89207 11.9311 3.33304 10.1673 3.33304C8.27837 3.33304 6.66726 3.97887 5.33393 5.27054C4.00059 6.5622 3.33393 8.13859 3.33393 9.9997C3.33393 11.8469 3.98323 13.4198 5.28184 14.7185C6.58045 16.0171 8.15337 16.6664 10.0006 16.6664Z" fill="#5D5D5D"/>
</g>
</g>
</svg>
