<svg viewBox="0 0 20 20" fill="none" xmlns="http://www.w3.org/2000/svg">
<path id="sports_gymnastics_2" d="M10 18.3333L9.58333 10L6.66667 9.16667H0.833333V7.5H5.83333L11.6667 3.33333L12.75 4.60417L9.29167 7.08333H11.6667L18.1667 3.33333L19.1667 4.5L12.0833 10L11.6667 18.3333H10ZM5 6.66667C4.54167 6.66667 4.14931 6.50347 3.82292 6.17708C3.49653 5.85069 3.33333 5.45833 3.33333 5C3.33333 4.54167 3.49653 4.14931 3.82292 3.82292C4.14931 3.49653 4.54167 3.33333 5 3.33333C5.45833 3.33333 5.85069 3.49653 6.17708 3.82292C6.50347 4.14931 6.66667 4.54167 6.66667 5C6.66667 5.45833 6.50347 5.85069 6.17708 6.17708C5.85069 6.50347 5.45833 6.66667 5 6.66667Z" fill="#5D5D5D"/>
</svg>
