<svg viewBox="0 0 16 16" fill="none" xmlns="http://www.w3.org/2000/svg">
<path id="verified_2" d="M5.73307 15L4.46641 12.8667L2.06641 12.3333L2.29974 9.86667L0.666406 8L2.29974 6.13333L2.06641 3.66667L4.46641 3.13333L5.73307 1L7.99974 1.96667L10.2664 1L11.5331 3.13333L13.9331 3.66667L13.6997 6.13333L15.3331 8L13.6997 9.86667L13.9331 12.3333L11.5331 12.8667L10.2664 15L7.99974 14.0333L5.73307 15ZM6.29974 13.3L7.99974 12.5667L9.73307 13.3L10.6664 11.7L12.4997 11.2667L12.3331 9.4L13.5664 8L12.3331 6.56667L12.4997 4.7L10.6664 4.3L9.69974 2.7L7.99974 3.43333L6.26641 2.7L5.33307 4.3L3.49974 4.7L3.66641 6.56667L2.43307 8L3.66641 9.4L3.49974 11.3L5.33307 11.7L6.29974 13.3ZM7.29974 10.3667L11.0664 6.6L10.1331 5.63333L7.29974 8.46667L5.86641 7.06667L4.93307 8L7.29974 10.3667Z" fill="#5D5D5D"/>
</svg>
